<svg width="18" height="20" viewBox="0 0 18 20" fill="none" xmlns="http://www.w3.org/2000/svg">
<path d="M17.4703 14.6875C16.9294 13.75 16.125 11.1372 16.125 7.75C16.125 5.86033 15.3743 4.04806 14.0381 2.71186C12.7019 1.37567 10.8897 0.625 9 0.625C7.11033 0.625 5.29806 1.37567 3.96186 2.71186C2.62567 4.04806 1.875 5.86033 1.875 7.75C1.875 11.1372 1.06969 13.75 0.528748 14.6828C0.428967 14.8537 0.376041 15.0479 0.375313 15.2459C0.374584 15.4438 0.426079 15.6384 0.524598 15.81C0.623118 15.9817 0.765175 16.1243 0.936433 16.2235C1.10769 16.3227 1.30209 16.3749 1.5 16.375H5.64656C5.74014 17.1989 6.13371 17.9594 6.75221 18.5117C7.37071 19.0639 8.17085 19.3691 9 19.3691C9.82915 19.3691 10.6293 19.0639 11.2478 18.5117C11.8663 17.9594 12.2599 17.1989 12.3534 16.375H16.5C16.6971 16.3743 16.8906 16.3218 17.0611 16.2228C17.2316 16.1238 17.373 15.9817 17.4713 15.8108C17.5696 15.6399 17.6212 15.4462 17.621 15.249C17.6209 15.0519 17.5689 14.8582 17.4703 14.6875ZM9 18.625C8.36882 18.6249 7.7588 18.3975 7.2817 17.9842C6.80459 17.571 6.49235 16.9997 6.40219 16.375H11.5978C11.5076 16.9997 11.1954 17.571 10.7183 17.9842C10.2412 18.3975 9.63118 18.6249 9 18.625ZM16.8234 15.4375C16.7914 15.4948 16.7445 15.5424 16.6878 15.5753C16.6311 15.6083 16.5666 15.6255 16.5009 15.625H1.5C1.43438 15.6255 1.36984 15.6083 1.31311 15.5753C1.25638 15.5424 1.20955 15.4948 1.1775 15.4375C1.14459 15.3805 1.12726 15.3158 1.12726 15.25C1.12726 15.1842 1.14459 15.1195 1.1775 15.0625C1.875 13.8597 2.625 11.0612 2.625 7.75C2.625 6.05924 3.29665 4.43774 4.49219 3.24219C5.68774 2.04665 7.30924 1.375 9 1.375C10.6908 1.375 12.3123 2.04665 13.5078 3.24219C14.7033 4.43774 15.375 6.05924 15.375 7.75C15.375 11.0603 16.125 13.8597 16.8225 15.0625C16.8556 15.1194 16.873 15.184 16.8732 15.2499C16.8734 15.3157 16.8562 15.3804 16.8234 15.4375Z" fill="black"/>
</svg>
