<svg width="199" height="123" viewBox="0 0 199 123" fill="none" xmlns="http://www.w3.org/2000/svg">
<path d="M101.584 26.9679L100.103 25.8487C99.7462 25.579 99.2538 25.579 98.897 25.8487L97.4164 26.9679C96.4053 27.7322 96.081 29.1079 96.6443 30.2435C96.8401 30.6381 96.8805 31.0919 96.7577 31.515L94.5674 39.0576C93.9241 41.2728 91.1259 41.9635 89.5257 40.3022L54.2467 3.67525C51.9847 1.32684 48.8645 0 45.6039 0H9.1198C5.30182 0 2.01592 2.69794 1.2728 6.4429L0.721249 9.22242C0.263764 11.5279 0.843295 13.9179 2.30595 15.7578L36.0961 58.263C39.1434 62.0963 44.2141 63.6933 48.9081 62.2983L63.3654 58.0016C65.0989 57.4864 66.9397 57.4509 68.6918 57.899L83.2244 61.6155C84.2497 61.8777 84.2183 63.3447 83.1827 63.5628L69.6555 66.4117C67.3068 66.9064 65.2143 68.2294 63.7602 70.139L58.3728 77.2145C56.5491 79.6095 55.9014 82.6987 56.6095 85.6245L61.0396 103.932C61.5761 106.148 62.8543 108.115 64.6622 109.506L80.6364 121.793C83.0722 123.667 86.6231 122.208 87.0385 119.163L91.5631 85.9969C91.7284 84.7854 93.5075 84.8728 93.5532 86.0946L94.2667 105.151C94.3521 107.432 95.086 109.64 96.3823 111.519L97.8004 113.573C98.6099 114.746 100.351 114.72 101.125 113.524L102.523 111.364C103.676 109.582 104.336 107.526 104.435 105.406L105.367 85.4969C105.424 84.2812 107.192 84.2026 107.357 85.4084L111.962 119.163C112.377 122.208 115.928 123.667 118.364 121.793L134.338 109.506C136.146 108.115 137.424 106.148 137.96 103.932L142.391 85.6245C143.099 82.6987 142.451 79.6095 140.627 77.2145L135.229 70.1252C133.782 68.2239 131.701 66.9039 129.364 66.4043L122.462 64.9286L116.071 63.5623C115.04 63.3418 115.008 61.8815 116.029 61.6165L130.292 57.9136C132.054 57.4561 133.908 57.4884 135.653 58.0072L150.092 62.2983C154.786 63.6933 159.857 62.0963 162.904 58.263L196.622 15.8486C198.126 13.9567 198.694 11.4862 198.167 9.12734L197.527 6.25701C196.71 2.60032 193.465 0 189.719 0H153.396C150.135 0 147.015 1.32684 144.753 3.67525L109.474 40.3022C107.874 41.9635 105.076 41.2727 104.433 39.0576L102.242 31.515C102.119 31.0919 102.16 30.6381 102.356 30.2435C102.919 29.1079 102.595 27.7322 101.584 26.9679Z" fill="black"/>
</svg>
