<svg width="257" height="160" viewBox="0 0 257 160" fill="none" xmlns="http://www.w3.org/2000/svg">
<path d="M131.448 35.3664L129.101 33.6005C128.745 33.3325 128.255 33.3325 127.899 33.6005L125.552 35.3664C124.396 36.2362 124.026 37.8068 124.671 39.1015L124.856 39.4729C125.08 39.9233 125.127 40.4418 124.986 40.9249L121.709 52.1606C121.064 54.3706 118.273 55.061 116.673 53.4065L69.0228 4.15602C66.762 1.81932 63.6498 0.5 60.3985 0.5H9.85768C6.04226 0.5 2.75783 3.19439 2.01201 6.93621L0.727222 13.3821C0.266118 15.6955 0.849498 18.0945 2.32142 19.9378L48.0911 77.2563C51.1375 81.0713 56.1915 82.6604 60.873 81.2753L82.6166 74.8418C84.3433 74.3309 86.176 74.2958 87.921 74.74L108.673 80.0234C109.699 80.2847 109.668 81.7538 108.631 81.9712L88.8896 86.1103C86.5447 86.602 84.4542 87.9193 82.9986 89.8224L74.5658 100.848C72.7303 103.248 72.0782 106.349 72.7919 109.285L79.0667 135.1C79.6063 137.32 80.8899 139.288 82.7039 140.677L105.741 158.318C108.177 160.183 111.719 158.725 112.136 155.685L118.704 107.752C118.87 106.541 120.648 106.628 120.694 107.85L121.778 136.679C121.865 138.968 122.604 141.184 123.908 143.066L126.803 147.241C127.613 148.409 129.349 148.383 130.123 147.191L132.905 142.911C134.066 141.125 134.731 139.062 134.831 136.935L136.226 107.254C136.283 106.039 138.05 105.96 138.215 107.166L144.864 155.685C145.281 158.725 148.823 160.183 151.259 158.318L174.296 140.677C176.11 139.288 177.394 137.32 177.933 135.1L184.208 109.285C184.922 106.349 184.27 103.248 182.434 100.848L173.991 89.8087C172.542 87.9138 170.463 86.5995 168.13 86.1029L158.154 83.9796L148.715 81.9706C147.682 81.7508 147.651 80.2885 148.673 80.0243L169.063 74.7546C170.818 74.3009 172.664 74.333 174.402 74.8474L196.127 81.2753C200.809 82.6604 205.863 81.0713 208.909 77.2562L254.606 20.0289C256.119 18.1334 256.691 15.6535 256.16 13.2866L254.695 6.74959C253.875 3.09646 250.632 0.5 246.888 0.5H196.602C193.35 0.5 190.238 1.81933 187.977 4.15603L140.327 53.4065C138.727 55.061 135.936 54.3706 135.291 52.1606L132.014 40.9249C131.873 40.4418 131.92 39.9233 132.144 39.4729L132.329 39.1015C132.974 37.8068 132.604 36.2362 131.448 35.3664Z" fill="#7422B9" stroke="url(#paint0_linear_1764_7810)"/>
<defs>
<linearGradient id="paint0_linear_1764_7810" x1="128.5" y1="-4.45918" x2="128.5" y2="162.5" gradientUnits="userSpaceOnUse">
<stop stop-color="white"/>
<stop offset="1" stop-color="#999999" stop-opacity="0.37"/>
</linearGradient>
</defs>
</svg>
