<svg width="16" height="9" viewBox="0 0 16 9" fill="none" xmlns="http://www.w3.org/2000/svg">
<path d="M7.73472 8.76552L0.234722 1.26552C0.199882 1.23068 0.172244 1.18932 0.153388 1.1438C0.134532 1.09827 0.124826 1.04948 0.124826 1.00021C0.124826 0.950936 0.134532 0.902145 0.153388 0.856623C0.172244 0.8111 0.199882 0.769738 0.234722 0.734896C0.269564 0.700055 0.310926 0.672418 0.356449 0.653562C0.401972 0.634706 0.450762 0.625 0.500035 0.625C0.549309 0.625 0.598099 0.634706 0.643621 0.653562C0.689144 0.672418 0.730507 0.700055 0.765348 0.734896L8.00004 7.96958L15.2347 0.734896C15.3051 0.664531 15.4005 0.625 15.5 0.625C15.5995 0.625 15.695 0.664531 15.7653 0.734896C15.8357 0.805261 15.8752 0.900697 15.8752 1.00021C15.8752 1.09972 15.8357 1.19516 15.7653 1.26552L8.26535 8.76552C8.23052 8.80039 8.18916 8.82805 8.14364 8.84692C8.09811 8.86579 8.04932 8.8755 8.00004 8.8755C7.95075 8.8755 7.90196 8.86579 7.85643 8.84692C7.81091 8.82805 7.76955 8.80039 7.73472 8.76552Z" fill="black"/>
</svg>
