<svg width="24" height="24" viewBox="0 0 24 24" fill="none" xmlns="http://www.w3.org/2000/svg">
<path d="M21.5156 4.96312C21.0834 4.40625 20.4375 4.125 19.5872 4.125C17.1628 4.125 13.8422 6.81844 12.375 9.495V5.25C12.375 5.15054 12.3355 5.05516 12.2652 4.98484C12.1948 4.91451 12.0994 4.875 12 4.875C11.9005 4.875 11.8051 4.91451 11.7348 4.98484C11.6645 5.05516 11.625 5.15054 11.625 5.25V9.495C10.1578 6.81844 6.83717 4.125 4.4128 4.125C3.56905 4.125 2.9128 4.40625 2.48436 4.96312C1.44374 6.3 1.92186 8.92406 2.53124 11.3147C2.8753 12.6666 3.5203 13.6247 4.45124 14.1628C4.82053 14.3744 5.22579 14.5159 5.64655 14.58C5.33437 14.9966 5.11236 15.4737 4.99467 15.9808C4.87697 16.488 4.86616 17.0141 4.96292 17.5256C5.05969 18.0372 5.2619 18.523 5.5567 18.9521C5.8515 19.3812 6.23242 19.7442 6.67521 20.018C7.11799 20.2918 7.61295 20.4705 8.12855 20.5425C8.64416 20.6146 9.16912 20.5785 9.67001 20.4366C10.1709 20.2946 10.6367 20.0499 11.0379 19.7181C11.439 19.3862 11.7667 18.9745 12 18.5091C12.233 18.9749 12.5605 19.3871 12.9616 19.7193C13.3627 20.0516 13.8286 20.2966 14.3297 20.4389C14.8307 20.5811 15.3559 20.6174 15.8718 20.5455C16.3876 20.4736 16.8828 20.295 17.3258 20.0211C17.7688 19.7472 18.1499 19.384 18.4448 18.9546C18.7397 18.5253 18.942 18.0393 19.0386 17.5275C19.1353 17.0157 19.1243 16.4894 19.0063 15.982C18.8884 15.4747 18.666 14.9976 18.3534 14.5809C18.7742 14.5165 19.1795 14.3747 19.5487 14.1628C20.4797 13.6247 21.1247 12.6628 21.4687 11.3147C22.0753 8.92406 22.5562 6.3 21.5156 4.96312ZM8.62498 19.875C7.86092 19.8668 7.12854 19.5685 6.57626 19.0404C6.02397 18.5124 5.69309 17.7941 5.65065 17.0312C5.60821 16.2682 5.85739 15.5177 6.34771 14.9317C6.83802 14.3456 7.53279 13.9679 8.29123 13.875C8.34048 13.8696 8.38818 13.8545 8.4316 13.8307C8.47503 13.8068 8.51333 13.7747 8.54432 13.736C8.57531 13.6973 8.59838 13.653 8.61223 13.6054C8.62607 13.5578 8.6304 13.508 8.62498 13.4588C8.61957 13.4095 8.6045 13.3618 8.58065 13.3184C8.5568 13.275 8.52463 13.2367 8.48598 13.2057C8.44733 13.1747 8.40295 13.1516 8.35538 13.1378C8.30781 13.1239 8.25798 13.1196 8.20873 13.125C7.53368 13.2008 6.89232 13.4602 6.35436 13.875C4.21686 13.9913 3.47811 12 3.26061 11.1338C2.73092 9.04875 2.22936 6.51562 3.0778 5.42719C3.3628 5.05406 3.80061 4.875 4.4128 4.875C7.17655 4.875 11.625 9.25125 11.625 11.9691V16.875C11.625 17.6707 11.3089 18.4337 10.7463 18.9963C10.1837 19.5589 9.42063 19.875 8.62498 19.875ZM20.7412 11.13C20.5219 11.9944 19.7831 13.9866 17.6475 13.8713C17.1084 13.4577 16.4665 13.1997 15.7912 13.125C15.6918 13.1141 15.592 13.1431 15.514 13.2057C15.4359 13.2683 15.3859 13.3593 15.375 13.4588C15.364 13.5582 15.3931 13.6579 15.4557 13.736C15.5182 13.8141 15.6093 13.8641 15.7087 13.875C16.2864 13.9376 16.8335 14.1661 17.2841 14.5329C17.7347 14.8997 18.0695 15.3891 18.2481 15.942C18.4266 16.4949 18.4413 17.0877 18.2904 17.6487C18.1394 18.2098 17.8293 18.7152 17.3974 19.1038C16.9655 19.4925 16.4303 19.7478 15.8565 19.8389C15.2827 19.9301 14.6947 19.8532 14.1637 19.6175C13.6326 19.3818 13.1811 18.9975 12.8637 18.5108C12.5463 18.0242 12.3766 17.456 12.375 16.875V11.9691C12.375 9.25031 16.8234 4.875 19.5872 4.875C20.1994 4.875 20.6372 5.05406 20.924 5.42344C21.7706 6.51187 21.2709 9.045 20.7412 11.13Z" fill="black"/>
</svg>
