<svg width="19" height="14" viewBox="0 0 19 14" fill="none" xmlns="http://www.w3.org/2000/svg">
<path d="M18.2655 1.01552L6.26552 13.0155C6.23069 13.0504 6.18934 13.078 6.14381 13.0969C6.09829 13.1158 6.04949 13.1255 6.00021 13.1255C5.95093 13.1255 5.90213 13.1158 5.85661 13.0969C5.81108 13.078 5.76972 13.0504 5.7349 13.0155L0.484896 7.76552C0.414531 7.69516 0.375 7.59972 0.375 7.50021C0.375 7.4007 0.414531 7.30526 0.484896 7.2349C0.555261 7.16453 0.650697 7.125 0.750208 7.125C0.84972 7.125 0.945156 7.16453 1.01552 7.2349L6.00021 12.2196L17.7349 0.484896C17.8053 0.414531 17.9007 0.375 18.0002 0.375C18.0997 0.375 18.1952 0.414531 18.2655 0.484896C18.3359 0.555261 18.3754 0.650697 18.3754 0.750209C18.3754 0.84972 18.3359 0.945156 18.2655 1.01552Z" fill="#62538F"/>
</svg>
