<svg width="98" height="98" viewBox="0 0 98 98" fill="none" xmlns="http://www.w3.org/2000/svg">
<path d="M49.0004 95.2782C74.5589 95.2782 95.2782 74.5589 95.2782 49.0004C95.2782 23.4419 74.5589 2.72266 49.0004 2.72266C23.4419 2.72266 2.72266 23.4419 2.72266 49.0004C2.72266 74.5589 23.4419 95.2782 49.0004 95.2782Z" fill="#393054"/>
<path d="M49.0006 88.9719C71.0762 88.9719 88.9719 71.0762 88.9719 49.0006C88.9719 26.9251 71.0762 9.0293 49.0006 9.0293C26.9251 9.0293 9.0293 26.9251 9.0293 49.0006C9.0293 71.0762 26.9251 88.9719 49.0006 88.9719Z" fill="#F6F6F6"/>
<path d="M43.9211 63.6315L31.5215 51.2319L35.9847 46.7686L43.9211 54.705L62.0255 36.6006L66.4888 41.0638L43.9211 63.6315Z" fill="#393054"/>
</svg>
