<svg width="26" height="31" viewBox="0 0 26 31" fill="none" xmlns="http://www.w3.org/2000/svg">
<path d="M18.8438 20.781C18.8438 21.2036 18.6758 21.609 18.377 21.9079C18.0781 22.2068 17.6727 22.3747 17.25 22.3747H8.75C8.32731 22.3747 7.92193 22.2068 7.62305 21.9079C7.32416 21.609 7.15625 21.2036 7.15625 20.781C7.15625 20.3583 7.32416 19.9529 7.62305 19.654C7.92193 19.3551 8.32731 19.1872 8.75 19.1872H17.25C17.6727 19.1872 18.0781 19.3551 18.377 19.654C18.6758 19.9529 18.8438 20.3583 18.8438 20.781ZM17.25 13.8747H8.75C8.32731 13.8747 7.92193 14.0426 7.62305 14.3415C7.32416 14.6404 7.15625 15.0458 7.15625 15.4685C7.15625 15.8911 7.32416 16.2965 7.62305 16.5954C7.92193 16.8943 8.32731 17.0622 8.75 17.0622H17.25C17.6727 17.0622 18.0781 16.8943 18.377 16.5954C18.6758 16.2965 18.8438 15.8911 18.8438 15.4685C18.8438 15.0458 18.6758 14.6404 18.377 14.3415C18.0781 14.0426 17.6727 13.8747 17.25 13.8747ZM25.2188 5.37471V27.6872C25.2188 28.3917 24.9389 29.0673 24.4408 29.5655C23.9426 30.0636 23.267 30.3435 22.5625 30.3435H3.4375C2.73302 30.3435 2.05739 30.0636 1.55925 29.5655C1.0611 29.0673 0.78125 28.3917 0.78125 27.6872V5.37471C0.78125 4.67022 1.0611 3.9946 1.55925 3.49645C2.05739 2.99831 2.73302 2.71846 3.4375 2.71846H8.02352C8.66671 2.0468 9.4392 1.5123 10.2945 1.14715C11.1497 0.781997 12.07 0.59375 13 0.59375C13.93 0.59375 14.8503 0.781997 15.7055 1.14715C16.5608 1.5123 17.3333 2.0468 17.9765 2.71846H22.5625C23.267 2.71846 23.9426 2.99831 24.4408 3.49645C24.9389 3.9946 25.2188 4.67022 25.2188 5.37471ZM9.31977 6.96846H16.6802C16.5519 6.08393 16.1093 5.2752 15.4335 4.69032C14.7577 4.10544 13.8938 3.78354 13 3.78354C12.1062 3.78354 11.2423 4.10544 10.5665 4.69032C9.89065 5.2752 9.44807 6.08393 9.31977 6.96846ZM22.0312 5.90596H19.719C19.8431 6.42812 19.906 6.96298 19.9062 7.49971V8.56221C19.9062 8.98489 19.7383 9.39027 19.4395 9.68916C19.1406 9.98804 18.7352 10.156 18.3125 10.156H7.6875C7.26481 10.156 6.85943 9.98804 6.56055 9.68916C6.26166 9.39027 6.09375 8.98489 6.09375 8.56221V7.49971C6.09403 6.96298 6.15688 6.42812 6.28102 5.90596H3.96875V27.156H22.0312V5.90596Z" fill="black"/>
</svg>
