<svg width="23" height="29" viewBox="0 0 23 29" fill="none" xmlns="http://www.w3.org/2000/svg">
<path d="M16.4482 18.188C16.4482 18.3289 16.3923 18.464 16.2926 18.5637C16.193 18.6633 16.0579 18.7193 15.917 18.7193H7.41699C7.2761 18.7193 7.14097 18.6633 7.04134 18.5637C6.94171 18.464 6.88574 18.3289 6.88574 18.188C6.88574 18.0471 6.94171 17.912 7.04134 17.8124C7.14097 17.7127 7.2761 17.6568 7.41699 17.6568H15.917C16.0579 17.6568 16.193 17.7127 16.2926 17.8124C16.3923 17.912 16.4482 18.0471 16.4482 18.188ZM15.917 13.4068H7.41699C7.2761 13.4068 7.14097 13.4627 7.04134 13.5624C6.94171 13.662 6.88574 13.7971 6.88574 13.938C6.88574 14.0789 6.94171 14.214 7.04134 14.3137C7.14097 14.4133 7.2761 14.4693 7.41699 14.4693H15.917C16.0579 14.4693 16.193 14.4133 16.2926 14.3137C16.3923 14.214 16.4482 14.0789 16.4482 13.938C16.4482 13.7971 16.3923 13.662 16.2926 13.5624C16.193 13.4627 16.0579 13.4068 15.917 13.4068ZM22.8232 4.37551V26.688C22.8232 27.1107 22.6553 27.5161 22.3564 27.815C22.0576 28.1138 21.6522 28.2818 21.2295 28.2818H2.10449C1.6818 28.2818 1.27643 28.1138 0.977541 27.815C0.678654 27.5161 0.510742 27.1107 0.510742 26.688V4.37551C0.510742 3.95282 0.678654 3.54744 0.977541 3.24856C1.27643 2.94967 1.6818 2.78176 2.10449 2.78176H7.16199C7.71029 2.11814 8.39842 1.58386 9.1772 1.2171C9.95598 0.850335 10.8062 0.660156 11.667 0.660156C12.5278 0.660156 13.378 0.850335 14.1568 1.2171C14.9356 1.58386 15.6237 2.11814 16.172 2.78176H21.2295C21.6522 2.78176 22.0576 2.94967 22.3564 3.24856C22.6553 3.54744 22.8232 3.95282 22.8232 4.37551ZM6.88574 6.50051V7.03176H16.4482V6.50051C16.4482 5.23244 15.9445 4.01631 15.0478 3.11965C14.1512 2.223 12.9351 1.71926 11.667 1.71926C10.3989 1.71926 9.1828 2.223 8.28614 3.11965C7.38948 4.01631 6.88574 5.23244 6.88574 6.50051ZM21.7607 4.37551C21.7607 4.23461 21.7048 4.09949 21.6051 3.99986C21.5055 3.90023 21.3704 3.84426 21.2295 3.84426H16.8693C17.2914 4.666 17.5114 5.57666 17.5107 6.50051V7.56301C17.5107 7.7039 17.4548 7.83903 17.3551 7.93866C17.2555 8.03829 17.1204 8.09426 16.9795 8.09426H6.35449C6.2136 8.09426 6.07847 8.03829 5.97884 7.93866C5.87921 7.83903 5.82324 7.7039 5.82324 7.56301V6.50051C5.82261 5.57666 6.04254 4.666 6.46473 3.84426H2.10449C1.9636 3.84426 1.82847 3.90023 1.72884 3.99986C1.62921 4.09949 1.57324 4.23461 1.57324 4.37551V26.688C1.57324 26.8289 1.62921 26.964 1.72884 27.0637C1.82847 27.1633 1.9636 27.2193 2.10449 27.2193H21.2295C21.3704 27.2193 21.5055 27.1633 21.6051 27.0637C21.7048 26.964 21.7607 26.8289 21.7607 26.688V4.37551Z" fill="black"/>
</svg>
