<svg width="30" height="30" viewBox="0 0 30 30" fill="none" xmlns="http://www.w3.org/2000/svg">
<path d="M29.344 16.195C29.1095 18.9204 28.1016 21.5221 26.4387 23.6941C24.7758 25.8661 22.5272 27.518 19.9574 28.4555C17.3875 29.3929 14.6034 29.5769 11.9326 28.9858C9.26178 28.3947 6.81532 27.0531 4.88105 25.1189C2.94679 23.1846 1.60519 20.7381 1.01409 18.0673C0.423001 15.3965 0.607001 12.6124 1.54445 10.0425C2.4819 7.47273 4.13379 5.22411 6.30579 3.56122C8.47779 1.89834 11.0795 0.890378 13.8049 0.655919C14.2276 0.620695 14.647 0.754826 14.9708 1.0288C15.2946 1.30278 15.4963 1.69417 15.5315 2.11686C15.5667 2.53955 15.4326 2.95891 15.1586 3.28271C14.8846 3.6065 14.4932 3.80819 14.0706 3.84342C11.95 4.02527 9.92556 4.80905 8.23538 6.1025C6.54521 7.39596 5.25967 9.14529 4.53002 11.1446C3.80038 13.144 3.657 15.3101 4.11676 17.3882C4.57652 19.4662 5.62029 21.3697 7.12523 22.8747C8.63018 24.3796 10.5337 25.4234 12.6117 25.8831C14.6898 26.3429 16.856 26.1995 18.8553 25.4699C20.8546 24.7402 22.6039 23.4547 23.8974 21.7645C25.1909 20.0744 25.9746 18.0499 26.1565 15.9294C26.1739 15.7201 26.2324 15.5163 26.3286 15.3296C26.4248 15.1429 26.5569 14.977 26.7172 14.8413C26.8775 14.7056 27.063 14.6029 27.263 14.5389C27.4631 14.4749 27.6738 14.451 27.8831 14.4684C28.0923 14.4859 28.2962 14.5444 28.4828 14.6406C28.6695 14.7368 28.8354 14.8688 28.9711 15.0291C29.1068 15.1895 29.2095 15.3749 29.2735 15.575C29.3375 15.775 29.3614 15.9857 29.344 16.195ZM13.4065 8.09342V14.9997C13.4065 15.4224 13.5744 15.8277 13.8733 16.1266C14.1722 16.4255 14.5776 16.5934 15.0002 16.5934H21.9065C22.3292 16.5934 22.7346 16.4255 23.0334 16.1266C23.3323 15.8277 23.5002 15.4224 23.5002 14.9997C23.5002 14.577 23.3323 14.1716 23.0334 13.8727C22.7346 13.5738 22.3292 13.4059 21.9065 13.4059H16.594V8.09342C16.594 7.67073 16.4261 7.26535 16.1272 6.96647C15.8283 6.66758 15.4229 6.49967 15.0002 6.49967C14.5776 6.49967 14.1722 6.66758 13.8733 6.96647C13.5744 7.26535 13.4065 7.67073 13.4065 8.09342ZM25.6252 10.7497C26.0455 10.7497 26.4564 10.625 26.8058 10.3915C27.1553 10.158 27.4276 9.82616 27.5885 9.43787C27.7493 9.04958 27.7914 8.62231 27.7094 8.2101C27.6274 7.79789 27.425 7.41925 27.1278 7.12207C26.8307 6.82488 26.452 6.62249 26.0398 6.5405C25.6276 6.45851 25.2003 6.50059 24.812 6.66142C24.4237 6.82226 24.0919 7.09463 23.8584 7.44408C23.6249 7.79354 23.5002 8.20438 23.5002 8.62467C23.5002 9.18825 23.7241 9.72876 24.1226 10.1273C24.5212 10.5258 25.0617 10.7497 25.6252 10.7497ZM21.3752 6.49967C21.7955 6.49967 22.2064 6.37504 22.5558 6.14154C22.9053 5.90804 23.1776 5.57616 23.3385 5.18787C23.4993 4.79958 23.5414 4.37231 23.4594 3.9601C23.3774 3.54789 23.175 3.16925 22.8778 2.87207C22.5807 2.57488 22.202 2.37249 21.7898 2.2905C21.3776 2.20851 20.9503 2.25059 20.562 2.41142C20.1737 2.57226 19.8419 2.84463 19.6084 3.19408C19.3749 3.54354 19.2502 3.95438 19.2502 4.37467C19.2502 4.93825 19.4741 5.47876 19.8726 5.87727C20.2712 6.27579 20.8117 6.49967 21.3752 6.49967Z" fill="black"/>
</svg>
