<svg width="27" height="28" viewBox="0 0 27 28" fill="none" xmlns="http://www.w3.org/2000/svg">
<path d="M26.6147 15.1062C26.3979 17.6301 25.4648 20.0397 23.9251 22.0513C22.3853 24.0629 20.3031 25.5929 17.9233 26.4612C15.5435 27.3296 12.9652 27.5001 10.4918 26.9528C8.01837 26.4055 5.75273 25.1631 3.96145 23.3718C2.17018 21.5805 0.927791 19.3149 0.380486 16.8415C-0.16682 14.3681 0.00372507 11.7898 0.872053 9.40999C1.74038 7.03021 3.27036 4.94795 5.28198 3.40822C7.29359 1.86849 9.70313 0.935348 12.2271 0.718602C12.2969 0.712846 12.3671 0.720888 12.4337 0.742268C12.5004 0.763649 12.5622 0.797949 12.6156 0.84321C12.669 0.888471 12.7129 0.943808 12.745 1.00606C12.777 1.06831 12.7964 1.13626 12.8022 1.20602C12.8079 1.27579 12.7999 1.346 12.7785 1.41266C12.7571 1.47932 12.7228 1.54111 12.6776 1.59451C12.6323 1.64791 12.577 1.69188 12.5147 1.72389C12.4525 1.75591 12.3845 1.77535 12.3148 1.7811C9.99237 1.9804 7.77524 2.8389 5.92424 4.25556C4.07324 5.67223 2.66539 7.58813 1.86635 9.77781C1.06731 11.9675 0.910339 14.3398 1.4139 16.6157C1.91746 18.8916 3.06059 20.9763 4.7088 22.6245C6.357 24.2727 8.44169 25.4158 10.7176 25.9194C12.9934 26.4229 15.3658 26.266 17.5555 25.4669C19.7451 24.6679 21.661 23.26 23.0777 21.409C24.4944 19.558 25.3529 17.3409 25.5522 15.0185C25.5579 14.9488 25.5774 14.8808 25.6094 14.8186C25.6414 14.7563 25.6854 14.701 25.7388 14.6557C25.7922 14.6104 25.854 14.5761 25.9206 14.5548C25.9873 14.5334 26.0575 14.5253 26.1273 14.5311C26.197 14.5369 26.265 14.5563 26.3272 14.5883C26.3895 14.6203 26.4448 14.6643 26.4901 14.7177C26.5353 14.7711 26.5696 14.8329 26.591 14.8995C26.6124 14.9662 26.6204 15.0364 26.6147 15.1062ZM13.3334 14.5311H20.7709C20.9118 14.5311 21.0469 14.4751 21.1466 14.3755C21.2462 14.2759 21.3022 14.1407 21.3022 13.9999C21.3022 13.859 21.2462 13.7238 21.1466 13.6242C21.0469 13.5246 20.9118 13.4686 20.7709 13.4686H13.8647V6.56235C13.8647 6.42146 13.8087 6.28633 13.7091 6.1867C13.6094 6.08707 13.4743 6.0311 13.3334 6.0311C13.1925 6.0311 13.0574 6.08707 12.9578 6.1867C12.8581 6.28633 12.8022 6.42146 12.8022 6.56235V13.9999C12.8022 14.1407 12.8581 14.2759 12.9578 14.3755C13.0574 14.4751 13.1925 14.5311 13.3334 14.5311ZM17.5834 2.8436C17.7936 2.8436 17.999 2.78129 18.1737 2.66454C18.3484 2.54779 18.4846 2.38185 18.565 2.1877C18.6455 1.99356 18.6665 1.77992 18.6255 1.57382C18.5845 1.36771 18.4833 1.17839 18.3347 1.0298C18.1861 0.881207 17.9968 0.780014 17.7907 0.739017C17.5846 0.698021 17.371 0.719062 17.1768 0.79948C16.9827 0.879898 16.8167 1.01608 16.7 1.19081C16.5832 1.36554 16.5209 1.57096 16.5209 1.7811C16.5209 2.06289 16.6329 2.33315 16.8321 2.5324C17.0314 2.73166 17.3016 2.8436 17.5834 2.8436ZM22.3647 6.0311C22.5748 6.0311 22.7802 5.96879 22.955 5.85204C23.1297 5.73529 23.2659 5.56935 23.3463 5.3752C23.4267 5.18106 23.4478 4.96742 23.4068 4.76132C23.3658 4.55521 23.2646 4.36589 23.116 4.2173C22.9674 4.06871 22.7781 3.96751 22.572 3.92652C22.3659 3.88552 22.1522 3.90656 21.9581 3.98698C21.7639 4.0674 21.598 4.20358 21.4812 4.37831C21.3645 4.55304 21.3022 4.75846 21.3022 4.9686C21.3022 5.25039 21.4141 5.52064 21.6134 5.7199C21.8126 5.91916 22.0829 6.0311 22.3647 6.0311ZM25.5522 10.8124C25.7623 10.8124 25.9677 10.75 26.1425 10.6333C26.3172 10.5165 26.4534 10.3506 26.5338 10.1565C26.6142 9.96231 26.6353 9.74867 26.5943 9.54257C26.5533 9.33646 26.4521 9.14714 26.3035 8.99855C26.1549 8.84996 25.9656 8.74876 25.7595 8.70777C25.5534 8.66677 25.3397 8.68781 25.1456 8.76823C24.9514 8.84865 24.7855 8.98483 24.6687 9.15956C24.552 9.33428 24.4897 9.53971 24.4897 9.74985C24.4897 10.0316 24.6016 10.3019 24.8009 10.5012C25.0001 10.7004 25.2704 10.8124 25.5522 10.8124Z" fill="black"/>
</svg>
