<svg width="22" height="22" viewBox="0 0 22 22" fill="none" xmlns="http://www.w3.org/2000/svg">
<path d="M20.9387 20.1869C21.0383 20.2866 21.0943 20.4218 21.0943 20.5628C21.0943 20.7038 21.0383 20.839 20.9387 20.9387C20.839 21.0383 20.7038 21.0943 20.5628 21.0943C20.4218 21.0943 20.2866 21.0383 20.1869 20.9387L11.0003 11.752L1.81366 20.9387C1.71397 21.0383 1.57877 21.0943 1.4378 21.0943C1.29682 21.0943 1.16162 21.0383 1.06194 20.9387C0.962252 20.839 0.90625 20.7038 0.90625 20.5628C0.90625 20.4218 0.962252 20.2866 1.06194 20.1869L10.2486 11.0003L1.06194 1.81366C0.962252 1.71397 0.90625 1.57877 0.90625 1.4378C0.90625 1.29682 0.962252 1.16162 1.06194 1.06194C1.16162 0.962252 1.29682 0.90625 1.4378 0.90625C1.57877 0.90625 1.71397 0.962252 1.81366 1.06194L11.0003 10.2486L20.1869 1.06194C20.2363 1.01258 20.2949 0.973424 20.3594 0.946711C20.4239 0.919999 20.493 0.90625 20.5628 0.90625C20.6326 0.90625 20.7017 0.919999 20.7662 0.946711C20.8307 0.973424 20.8893 1.01258 20.9387 1.06194C20.988 1.11129 21.0272 1.16989 21.0539 1.23438C21.0806 1.29887 21.0943 1.36799 21.0943 1.4378C21.0943 1.5076 21.0806 1.57672 21.0539 1.64121C21.0272 1.7057 20.988 1.7643 20.9387 1.81366L11.752 11.0003L20.9387 20.1869Z" fill="black"/>
</svg>
