<svg width="81" height="61" viewBox="0 0 81 61" fill="none" xmlns="http://www.w3.org/2000/svg">
<path fill-rule="evenodd" clip-rule="evenodd" d="M41.6486 39.9176C41.6849 39.918 41.7212 39.9182 41.7575 39.9182C47.2082 39.9182 51.781 35.2276 51.781 29.7769C51.781 28.9881 51.6853 28.2201 51.5049 27.4834L49.262 30.313C49.0694 33.3639 46.7888 36.1108 43.9132 37.0607L41.6486 39.9176ZM42.734 22.4503C42.4124 22.4028 42.0863 22.3782 41.7575 22.3782C37.8033 22.3782 34.2399 25.9416 34.2399 29.8958C34.2399 30.7999 34.4261 31.6835 34.7607 32.5088L33.0455 34.6727C32.2238 33.2069 31.752 31.5312 31.752 29.7769C31.752 24.3262 36.3068 19.8711 41.7575 19.8711C42.6967 19.8711 43.6098 20.0034 44.4779 20.2502L42.734 22.4503Z" fill="#CAC4D0"/>
<path fill-rule="evenodd" clip-rule="evenodd" d="M30.7537 53.6679C33.8687 54.4538 37.1124 54.9058 40.425 54.9058C61.5673 54.9058 80.8 36.4932 80.8 30.3817C80.8 26.6318 73.8966 18.1377 63.6773 12.1334L62.0576 14.1768C71.5822 19.6079 78.4074 27.1153 78.4074 30.3826C78.4074 35.7903 59.7107 52.8131 41.0232 52.8131C38.101 52.8131 35.1785 52.4001 32.3274 51.6826L30.7537 53.6679ZM52.6496 9.94726C48.89 8.7061 44.9564 7.95201 41.0232 7.95201C22.3356 7.95201 3.63893 25.1072 3.63893 30.5149C3.63893 34.0633 11.6892 42.5559 22.5047 47.9763L20.9233 49.9712C9.15673 44.0681 0.947266 34.4711 0.947266 30.3817C0.947266 24.2703 20.18 5.55859 41.3223 5.55859C45.8398 5.55859 50.2292 6.41291 54.339 7.81606L52.6496 9.94726Z" fill="#CAC4D0"/>
<rect x="65.6387" y="1.77734" width="75.1766" height="2.86387" rx="1.43193" transform="rotate(128.4 65.6387 1.77734)" fill="#CAC4D0"/>
</svg>
