<svg width="32" height="32" viewBox="0 0 32 32" fill="none" xmlns="http://www.w3.org/2000/svg">
<path d="M30.5 10.0005C30.5009 9.51484 30.3839 9.03625 30.159 8.60581C29.9342 8.17537 29.6082 7.80595 29.209 7.5293C28.8099 7.25265 28.3496 7.07703 27.8676 7.01752C27.3856 6.95802 26.8964 7.01642 26.442 7.1877C25.9875 7.35897 25.5815 7.63801 25.2587 8.00084C24.9359 8.36367 24.706 8.79943 24.5887 9.27071C24.4715 9.74198 24.4704 10.2347 24.5856 10.7065C24.7008 11.1782 24.9288 11.615 25.25 11.9792L21.125 17.0467L17.6375 9.01173C18.1793 8.65879 18.5925 8.14026 18.8157 7.53339C19.0388 6.92652 19.06 6.26379 18.8759 5.64395C18.6918 5.02411 18.3124 4.48034 17.7941 4.09365C17.2759 3.70696 16.6466 3.49805 16 3.49805C15.3534 3.49805 14.7241 3.70696 14.2059 4.09365C13.6877 4.48034 13.3082 5.02411 13.1242 5.64395C12.9401 6.26379 12.9612 6.92652 13.1843 7.53339C13.4075 8.14026 13.8207 8.65879 14.3625 9.01173L10.875 17.0467L6.75002 11.9792C7.20221 11.4639 7.46426 10.8093 7.49256 10.1243C7.52086 9.43933 7.3137 8.76532 6.90555 8.21448C6.49741 7.66363 5.91291 7.2692 5.24936 7.09684C4.58581 6.92448 3.88325 6.98459 3.25862 7.26716C2.63399 7.54973 2.12498 8.03771 1.81634 8.64987C1.5077 9.26204 1.41803 9.96145 1.56227 10.6317C1.70652 11.3019 2.07596 11.9025 2.60911 12.3335C3.14226 12.7645 3.80695 12.9999 4.49252 13.0005L6.36752 24.2505C6.42662 24.6002 6.60772 24.9176 6.87866 25.1464C7.14961 25.3753 7.49287 25.5007 7.84752 25.5005H24.1525C24.5072 25.5007 24.8504 25.3753 25.1214 25.1464C25.3923 24.9176 25.5734 24.6002 25.6325 24.2505L27.5075 13.0005C28.3019 12.9985 29.063 12.6815 29.624 12.1192C30.185 11.5568 30.5 10.7948 30.5 10.0005ZM16 4.50048C16.3956 4.50048 16.7823 4.61778 17.1112 4.83754C17.4401 5.0573 17.6964 5.36966 17.8478 5.73511C17.9992 6.10056 18.0388 6.5027 17.9616 6.89066C17.8844 7.27862 17.6939 7.63499 17.4142 7.91469C17.1345 8.1944 16.7782 8.38488 16.3902 8.46205C16.0022 8.53922 15.6001 8.49961 15.2346 8.34824C14.8692 8.19686 14.5568 7.94052 14.3371 7.61162C14.1173 7.28272 14 6.89604 14 6.50048C14 5.97005 14.2107 5.46134 14.5858 5.08626C14.9609 4.71119 15.4696 4.50048 16 4.50048ZM2.50002 10.0005C2.50002 9.60492 2.61731 9.21824 2.83708 8.88934C3.05684 8.56044 3.3692 8.30409 3.73465 8.15272C4.1001 8.00134 4.50223 7.96174 4.8902 8.03891C5.27816 8.11608 5.63452 8.30656 5.91423 8.58627C6.19393 8.86597 6.38442 9.22234 6.46159 9.6103C6.53876 9.99826 6.49915 10.4004 6.34778 10.7658C6.1964 11.1313 5.94005 11.4437 5.61116 11.6634C5.28226 11.8832 4.89558 12.0005 4.50002 12.0005C3.96958 12.0005 3.46088 11.7898 3.0858 11.4147C2.71073 11.0396 2.50002 10.5309 2.50002 10.0005ZM24.6463 24.083C24.6267 24.1998 24.5664 24.3058 24.476 24.3823C24.3855 24.4587 24.2709 24.5006 24.1525 24.5005H7.84752C7.72804 24.5021 7.61192 24.4609 7.5202 24.3843C7.42848 24.3077 7.36722 24.2008 7.34752 24.083L5.47252 12.833C5.64586 12.7738 5.81326 12.6985 5.97252 12.608L10.6125 18.3155C10.6593 18.3732 10.7184 18.4197 10.7854 18.4517C10.8524 18.4837 10.9257 18.5004 11 18.5005C11.0225 18.5023 11.0451 18.5023 11.0675 18.5005C11.1527 18.4889 11.2335 18.4556 11.302 18.4037C11.3705 18.3518 11.4245 18.2831 11.4588 18.2042L15.2788 9.41673C15.7523 9.53507 16.2477 9.53507 16.7213 9.41673L20.5413 18.2042C20.5755 18.2831 20.6295 18.3518 20.698 18.4037C20.7666 18.4556 20.8473 18.4889 20.9325 18.5005C20.955 18.5023 20.9776 18.5023 21 18.5005C21.0743 18.5004 21.1476 18.4837 21.2146 18.4517C21.2817 18.4197 21.3407 18.3732 21.3875 18.3155L26.0238 12.6105C26.183 12.701 26.3504 12.7763 26.5238 12.8355L24.6463 24.083ZM27.5 12.0005C27.1045 12.0005 26.7178 11.8832 26.3889 11.6634C26.06 11.4437 25.8036 11.1313 25.6523 10.7658C25.5009 10.4004 25.4613 9.99826 25.5384 9.6103C25.6156 9.22234 25.8061 8.86597 26.0858 8.58627C26.3655 8.30656 26.7219 8.11608 27.1098 8.03891C27.4978 7.96174 27.8999 8.00134 28.2654 8.15272C28.6308 8.30409 28.9432 8.56044 29.163 8.88934C29.3827 9.21824 29.5 9.60492 29.5 10.0005C29.5 10.5309 29.2893 11.0396 28.9142 11.4147C28.5392 11.7898 28.0305 12.0005 27.5 12.0005Z" fill="black"/>
</svg>
