<svg width="75" height="46" viewBox="0 0 75 46" fill="none" xmlns="http://www.w3.org/2000/svg">
<path fill-rule="evenodd" clip-rule="evenodd" d="M36.7644 45.9555C56.4535 45.9555 74.3643 28.8084 74.3643 23.117C74.3643 17.4256 57.2891 0 37.6 0C17.9108 0 0 17.4256 0 23.117C0 28.8084 17.0753 45.9555 36.7644 45.9555ZM37.3214 44.0053C54.7245 44.0053 72.1362 28.1525 72.1362 23.1164C72.1362 18.0804 54.7245 2.22758 37.3214 2.22758C19.9183 2.22758 2.50662 18.2036 2.50662 23.2397C2.50662 28.2757 19.9183 44.0053 37.3214 44.0053Z" fill="#CAC4D0"/>
<path fill-rule="evenodd" clip-rule="evenodd" d="M38.0053 32.0052C43.0814 32.0052 47.3399 27.637 47.3399 22.5609C47.3399 17.4848 43.0814 13.3359 38.0053 13.3359C32.9292 13.3359 28.6875 17.4848 28.6875 22.5609C28.6875 27.637 32.9292 32.0052 38.0053 32.0052ZM38.0054 29.6712C41.6878 29.6712 45.0064 26.3527 45.0064 22.6703C45.0064 18.9879 41.6878 15.6693 38.0054 15.6693C34.323 15.6693 31.0045 18.9879 31.0045 22.6703C31.0045 26.3527 34.323 29.6712 38.0054 29.6712Z" fill="#CAC4D0"/>
</svg>
