<svg width="24" height="24" viewBox="0 0 24 24" fill="none" xmlns="http://www.w3.org/2000/svg">
<g clip-path="url(#clip0_1545_3528)">
<path d="M0.3125 6.15562H5.13227C5.26057 7.04015 5.70315 7.84887 6.37899 8.43375C7.05483 9.01863 7.91872 9.34054 8.8125 9.34054C9.70628 9.34054 10.5702 9.01863 11.246 8.43375C11.9218 7.84887 12.3644 7.04015 12.4927 6.15562H23.6875C23.8284 6.15562 23.9635 6.09965 24.0632 6.00002C24.1628 5.90039 24.2188 5.76527 24.2188 5.62437C24.2188 5.48347 24.1628 5.34835 24.0632 5.24872C23.9635 5.14909 23.8284 5.09312 23.6875 5.09312H12.4927C12.3644 4.2086 11.9218 3.39987 11.246 2.81499C10.5702 2.23011 9.70628 1.9082 8.8125 1.9082C7.91872 1.9082 7.05483 2.23011 6.37899 2.81499C5.70315 3.39987 5.26057 4.2086 5.13227 5.09312H0.3125C0.171604 5.09312 0.0364783 5.14909 -0.0631504 5.24872C-0.162779 5.34835 -0.21875 5.48347 -0.21875 5.62437C-0.21875 5.76527 -0.162779 5.90039 -0.0631504 6.00002C0.0364783 6.09965 0.171604 6.15562 0.3125 6.15562ZM8.8125 2.96812C9.33786 2.96812 9.85142 3.12391 10.2882 3.41578C10.7251 3.70765 11.0655 4.1225 11.2666 4.60787C11.4676 5.09323 11.5202 5.62732 11.4177 6.14258C11.3152 6.65784 11.0622 7.13114 10.6908 7.50262C10.3193 7.87411 9.84597 8.12709 9.33071 8.22958C8.81545 8.33207 8.28136 8.27947 7.796 8.07843C7.31063 7.87738 6.89578 7.53692 6.60391 7.1001C6.31204 6.66329 6.15625 6.14973 6.15625 5.62437C6.15625 4.91989 6.4361 4.24426 6.93425 3.74612C7.43239 3.24798 8.10802 2.96812 8.8125 2.96812ZM23.6875 17.8431H20.9927C20.8644 16.9586 20.4218 16.1499 19.746 15.565C19.0702 14.9801 18.2063 14.6582 17.3125 14.6582C16.4187 14.6582 15.5548 14.9801 14.879 15.565C14.2032 16.1499 13.7606 16.9586 13.6323 17.8431H0.3125C0.171604 17.8431 0.0364783 17.8991 -0.0631504 17.9987C-0.162779 18.0983 -0.21875 18.2335 -0.21875 18.3744C-0.21875 18.5153 -0.162779 18.6504 -0.0631504 18.75C0.0364783 18.8497 0.171604 18.9056 0.3125 18.9056H13.6323C13.7606 19.7901 14.2032 20.5989 14.879 21.1838C15.5548 21.7686 16.4187 22.0905 17.3125 22.0905C18.2063 22.0905 19.0702 21.7686 19.746 21.1838C20.4218 20.5989 20.8644 19.7901 20.9927 18.9056H23.6875C23.8284 18.9056 23.9635 18.8497 24.0632 18.75C24.1628 18.6504 24.2188 18.5153 24.2188 18.3744C24.2188 18.2335 24.1628 18.0983 24.0632 17.9987C23.9635 17.8991 23.8284 17.8431 23.6875 17.8431ZM17.3125 21.0306C16.7871 21.0306 16.2736 20.8748 15.8368 20.583C15.3999 20.2911 15.0595 19.8762 14.8584 19.3909C14.6574 18.9055 14.6048 18.3714 14.7073 17.8562C14.8098 17.3409 15.0628 16.8676 15.4342 16.4961C15.8057 16.1246 16.279 15.8717 16.7943 15.7692C17.3096 15.6667 17.8436 15.7193 18.329 15.9203C18.8144 16.1214 19.2292 16.4618 19.5211 16.8986C19.813 17.3355 19.9688 17.849 19.9688 18.3744C19.9688 19.0789 19.6889 19.7545 19.1908 20.2526C18.6926 20.7508 18.017 21.0306 17.3125 21.0306Z" fill="black"/>
</g>
<defs>
<clipPath id="clip0_1545_3528">
<rect width="24" height="24" fill="white"/>
</clipPath>
</defs>
</svg>
