<svg width="30" height="25" viewBox="0 0 30 25" fill="none" xmlns="http://www.w3.org/2000/svg">
<path d="M21.6406 0.34375C18.7931 0.34375 16.3387 1.69711 15 3.93898C13.6613 1.69711 11.2069 0.34375 8.35938 0.34375C6.31713 0.34621 4.35924 1.15858 2.91516 2.60266C1.47108 4.04674 0.65871 6.00463 0.65625 8.04688C0.65625 11.844 3.04688 15.8124 7.74844 19.8393C9.91936 21.6865 12.2633 23.3201 14.7477 24.7175C14.8252 24.7593 14.9119 24.7813 15 24.7813C15.0881 24.7813 15.1748 24.7593 15.2523 24.7175C17.7367 23.3201 20.0806 21.6865 22.2516 19.8393C26.9531 15.8124 29.3438 11.844 29.3438 8.04688C29.3413 6.00463 28.5289 4.04674 27.0848 2.60266C25.6408 1.15858 23.6829 0.34621 21.6406 0.34375ZM15 23.6417C13.1406 22.5792 1.71875 15.7593 1.71875 8.04688C1.72086 6.28632 2.42117 4.59848 3.66607 3.35357C4.91097 2.10867 6.59882 1.40836 8.35938 1.40625C11.163 1.40625 13.5191 2.90836 14.5086 5.32555C14.5486 5.42298 14.6167 5.50632 14.7042 5.56497C14.7917 5.62362 14.8947 5.65494 15 5.65494C15.1053 5.65494 15.2083 5.62362 15.2958 5.56497C15.3833 5.50632 15.4514 5.42298 15.4914 5.32555C16.4809 2.90836 18.837 1.40625 21.6406 1.40625C23.4012 1.40836 25.089 2.10867 26.3339 3.35357C27.5788 4.59848 28.2791 6.28632 28.2812 8.04688C28.2812 15.75 16.8594 22.5845 15 23.6417Z" fill="black"/>
</svg>
