<svg width="26" height="27" viewBox="0 0 26 27" fill="none" xmlns="http://www.w3.org/2000/svg">
<path d="M24.7526 11.8106L14.1276 1.18555C13.9795 1.03697 13.8036 0.919084 13.6099 0.838644C13.4161 0.758204 13.2084 0.716797 12.9987 0.716797C12.7889 0.716797 12.5812 0.758204 12.3875 0.838644C12.1938 0.919084 12.0178 1.03697 11.8698 1.18555L1.24477 11.8106C0.946934 12.1101 0.780217 12.5157 0.781255 12.9381V25.6881C0.781255 25.829 0.837226 25.9642 0.936854 26.0638C1.03648 26.1634 1.17161 26.2194 1.3125 26.2194H9.8125C9.9534 26.2194 10.0885 26.1634 10.1882 26.0638C10.2878 25.9642 10.3438 25.829 10.3438 25.6881V17.7194H15.6563V25.6881C15.6563 25.829 15.7122 25.9642 15.8119 26.0638C15.9115 26.1634 16.0466 26.2194 16.1875 26.2194H24.6875C24.8284 26.2194 24.9635 26.1634 25.0632 26.0638C25.1628 25.9642 25.2188 25.829 25.2188 25.6881V12.9381C25.2189 12.7288 25.1778 12.5214 25.0978 12.328C25.0179 12.1345 24.9005 11.9587 24.7526 11.8106ZM24.1563 25.1569H16.7188V17.1881C16.7188 17.0472 16.6628 16.9121 16.5632 16.8125C16.4635 16.7129 16.3284 16.6569 16.1875 16.6569H9.8125C9.67161 16.6569 9.53648 16.7129 9.43685 16.8125C9.33723 16.9121 9.28125 17.0472 9.28125 17.1881V25.1569H1.84375V12.9381C1.8437 12.8683 1.8574 12.7992 1.88406 12.7347C1.91072 12.6703 1.94983 12.6116 1.99915 12.5623L12.6241 1.93727C12.6735 1.88788 12.7321 1.84869 12.7966 1.82196C12.8611 1.79522 12.9302 1.78146 13 1.78146C13.0698 1.78146 13.139 1.79522 13.2034 1.82196C13.2679 1.84869 13.3265 1.88788 13.3759 1.93727L24.0009 12.5623C24.0502 12.6116 24.0893 12.6703 24.116 12.7347C24.1426 12.7992 24.1563 12.8683 24.1563 12.9381V25.1569Z" fill="black"/>
</svg>
