<svg width="28" height="29" viewBox="0 0 28 29" fill="none" xmlns="http://www.w3.org/2000/svg">
<path d="M26.503 12.059L15.878 1.43396C15.3799 0.935994 14.7044 0.65625 14 0.65625C13.2957 0.65625 12.6202 0.935994 12.122 1.43396L1.49704 12.059C1.24939 12.3051 1.05306 12.598 0.919461 12.9206C0.785861 13.2432 0.717643 13.5891 0.718764 13.9383V26.6883C0.718764 27.111 0.886676 27.5163 1.18556 27.8152C1.48445 28.1141 1.88982 28.282 2.31251 28.282H10.8125C11.2352 28.282 11.6406 28.1141 11.9395 27.8152C12.2384 27.5163 12.4063 27.111 12.4063 26.6883V19.782H15.5938V26.6883C15.5938 27.111 15.7617 27.5163 16.0606 27.8152C16.3594 28.1141 16.7648 28.282 17.1875 28.282H25.6875C26.1102 28.282 26.5156 28.1141 26.8145 27.8152C27.1134 27.5163 27.2813 27.111 27.2813 26.6883V13.9383C27.2824 13.5891 27.2142 13.2432 27.0806 12.9206C26.947 12.598 26.7506 12.3051 26.503 12.059ZM24.0938 25.0945H18.7813V18.1883C18.7813 17.7656 18.6134 17.3602 18.3145 17.0613C18.0156 16.7624 17.6102 16.5945 17.1875 16.5945H10.8125C10.3898 16.5945 9.98445 16.7624 9.68556 17.0613C9.38668 17.3602 9.21876 17.7656 9.21876 18.1883V25.0945H3.90626V14.1574L14 4.06365L24.0938 14.1574V25.0945Z" fill="black"/>
</svg>
