<svg width="79" height="78" viewBox="0 0 79 78" fill="none" xmlns="http://www.w3.org/2000/svg">
<path d="M62.25 32.5C61.388 32.5 60.5614 32.8424 59.9519 33.4519C59.3424 34.0614 59 34.888 59 35.75V46.735L54.19 41.925C52.4916 40.24 50.1962 39.2945 47.8037 39.2945C45.4113 39.2945 43.1159 40.24 41.4175 41.925L39.1425 44.2325L31.0825 36.14C29.3841 34.455 27.0887 33.5095 24.6963 33.5095C22.3038 33.5095 20.0084 34.455 18.31 36.14L13.5 40.9825V22.75C13.5 21.888 13.8424 21.0614 14.4519 20.4519C15.0614 19.8424 15.888 19.5 16.75 19.5H42.75C43.612 19.5 44.4386 19.1576 45.0481 18.5481C45.6576 17.9386 46 17.112 46 16.25C46 15.388 45.6576 14.5614 45.0481 13.9519C44.4386 13.3424 43.612 13 42.75 13H16.75C14.1641 13 11.6842 14.0272 9.85571 15.8557C8.02723 17.6842 7 20.1641 7 22.75V62.465C7.00856 64.8586 7.96321 67.1517 9.65575 68.8442C11.3483 70.5368 13.6414 71.4914 16.035 71.5H56.465C57.3457 71.493 58.221 71.3617 59.065 71.11C60.9417 70.5836 62.5938 69.4561 63.768 67.9003C64.9421 66.3446 65.5734 64.4466 65.565 62.4975V35.75C65.5651 35.3177 65.4789 34.8897 65.3115 34.4911C65.1442 34.0925 64.8989 33.7313 64.5902 33.4286C64.2815 33.126 63.9155 32.8879 63.5137 32.7285C63.1119 32.569 62.6822 32.4914 62.25 32.5ZM16.75 65C15.888 65 15.0614 64.6576 14.4519 64.0481C13.8424 63.4386 13.5 62.612 13.5 61.75V50.1475L22.8925 40.755C23.3675 40.2827 24.0101 40.0175 24.68 40.0175C25.3499 40.0175 25.9925 40.2827 26.4675 40.755L50.745 65H16.75ZM59 61.75C58.9791 62.3793 58.7759 62.989 58.415 63.505L43.725 48.75L46.0325 46.475C46.2655 46.2372 46.5436 46.0483 46.8506 45.9193C47.1575 45.7903 47.4871 45.7239 47.82 45.7239C48.1529 45.7239 48.4825 45.7903 48.7895 45.9193C49.0964 46.0483 49.3745 46.2372 49.6075 46.475L59 55.9325V61.75ZM68.75 13H65.5V9.75C65.5 8.88805 65.1576 8.0614 64.5481 7.4519C63.9386 6.84241 63.112 6.5 62.25 6.5C61.388 6.5 60.5614 6.84241 59.9519 7.4519C59.3424 8.0614 59 8.88805 59 9.75V13H55.75C54.888 13 54.0614 13.3424 53.4519 13.9519C52.8424 14.5614 52.5 15.388 52.5 16.25C52.5 17.112 52.8424 17.9386 53.4519 18.5481C54.0614 19.1576 54.888 19.5 55.75 19.5H59V22.75C59 23.612 59.3424 24.4386 59.9519 25.0481C60.5614 25.6576 61.388 26 62.25 26C63.112 26 63.9386 25.6576 64.5481 25.0481C65.1576 24.4386 65.5 23.612 65.5 22.75V19.5H68.75C69.612 19.5 70.4386 19.1576 71.0481 18.5481C71.6576 17.9386 72 17.112 72 16.25C72 15.388 71.6576 14.5614 71.0481 13.9519C70.4386 13.3424 69.612 13 68.75 13Z" fill="#9D9D9D"/>
</svg>
