<svg width="34" height="35" viewBox="0 0 34 35" fill="none" xmlns="http://www.w3.org/2000/svg">
<path d="M10.2488 17.8762L20.8738 28.5012C20.9232 28.5505 20.9818 28.5897 21.0463 28.6164C21.1108 28.6431 21.1799 28.6568 21.2497 28.6568C21.3195 28.6568 21.3886 28.6431 21.4531 28.6164C21.5176 28.5897 21.5762 28.5505 21.6256 28.5012C21.6749 28.4518 21.7141 28.3932 21.7408 28.3287C21.7675 28.2642 21.7812 28.1951 21.7812 28.1253C21.7812 28.0555 21.7675 27.9864 21.7408 27.9219C21.7141 27.8574 21.6749 27.7988 21.6256 27.7494L11.3764 17.5003L21.6256 7.25116C21.7252 7.15147 21.7812 7.01627 21.7812 6.8753C21.7812 6.73432 21.7252 6.59912 21.6256 6.49944C21.5259 6.39975 21.3907 6.34375 21.2497 6.34375C21.1087 6.34375 20.9735 6.39975 20.8738 6.49944L10.2488 17.1244C10.1995 17.1738 10.1603 17.2324 10.1335 17.2969C10.1068 17.3614 10.093 17.4305 10.093 17.5003C10.093 17.5701 10.1068 17.6392 10.1335 17.7037C10.1603 17.7682 10.1995 17.8268 10.2488 17.8762Z" fill="black"/>
</svg>
