<svg width="24" height="24" viewBox="0 0 24 24" fill="none" xmlns="http://www.w3.org/2000/svg">
<path d="M9.1703 11.2897L13.4103 7.0497C13.5033 6.95598 13.6139 6.88158 13.7357 6.83081C13.8576 6.78004 13.9883 6.75391 14.1203 6.75391C14.2523 6.75391 14.383 6.78004 14.5049 6.83081C14.6267 6.88158 14.7373 6.95598 14.8303 7.0497C15.0166 7.23707 15.1211 7.49052 15.1211 7.7547C15.1211 8.01889 15.0166 8.27234 14.8303 8.4597L11.2903 11.9997L14.8303 15.5397C15.0166 15.7271 15.1211 15.9805 15.1211 16.2447C15.1211 16.5089 15.0166 16.7623 14.8303 16.9497C14.7369 17.0424 14.626 17.1157 14.5042 17.1655C14.3824 17.2152 14.2519 17.2405 14.1203 17.2397C13.9887 17.2405 13.8582 17.2152 13.7364 17.1655C13.6146 17.1157 13.5037 17.0424 13.4103 16.9497L9.1703 12.7097C9.07657 12.6167 9.00218 12.5061 8.95141 12.3843C8.90064 12.2624 8.8745 12.1317 8.8745 11.9997C8.8745 11.8677 8.90064 11.737 8.95141 11.6151C9.00218 11.4933 9.07657 11.3827 9.1703 11.2897Z" fill="black"/>
</svg>
