<?xml version="1.0" encoding="UTF-8"?>
<svg xmlns="http://www.w3.org/2000/svg" xmlns:xlink="http://www.w3.org/1999/xlink" width="200px" height="231px" viewBox="0 0 200 165" version="1.1">
<g id="surface1">
<path style=" stroke:none;fill-rule:nonzero;fill:rgb(0%,0%,0%);fill-opacity:1;" d="M 167.242188 4.578125 L 30.460938 4.578125 C 22.6875 4.578125 15.234375 7.65625 9.738281 13.136719 C 4.238281 18.617188 1.152344 26.046875 1.152344 33.796875 L 1.152344 131.195312 C 1.152344 138.941406 4.238281 146.375 9.738281 151.855469 C 15.234375 157.332031 22.6875 160.414062 30.460938 160.414062 L 167.242188 160.414062 C 175.015625 160.414062 182.472656 157.332031 187.96875 151.855469 C 193.464844 146.375 196.554688 138.941406 196.554688 131.195312 L 196.554688 33.796875 C 196.554688 26.046875 193.464844 18.617188 187.96875 13.136719 C 182.472656 7.65625 175.015625 4.578125 167.242188 4.578125 Z M 163.238281 24.058594 L 105.789062 81.328125 C 104.882812 82.238281 103.800781 82.964844 102.609375 83.457031 C 101.417969 83.953125 100.144531 84.207031 98.851562 84.207031 C 97.5625 84.207031 96.285156 83.953125 95.09375 83.457031 C 93.90625 82.964844 92.824219 82.238281 91.914062 81.328125 L 34.46875 24.058594 Z M 177.015625 131.195312 C 177.015625 133.777344 175.984375 136.253906 174.152344 138.082031 C 172.320312 139.90625 169.835938 140.933594 167.242188 140.933594 L 30.460938 140.933594 C 27.871094 140.933594 25.386719 139.90625 23.554688 138.082031 C 21.722656 136.253906 20.691406 133.777344 20.691406 131.195312 L 20.691406 37.789062 L 78.140625 95.058594 C 83.636719 100.53125 91.085938 103.605469 98.851562 103.605469 C 106.621094 103.605469 114.070312 100.53125 119.566406 95.058594 L 177.015625 37.789062 Z M 177.015625 131.195312 "/>
</g>
</svg>
