<?xml version="1.0" encoding="UTF-8"?>
<svg xmlns="http://www.w3.org/2000/svg" xmlns:xlink="http://www.w3.org/1999/xlink" width="200px" height="231px" viewBox="0 0 200 230" version="1.1">
<g id="surface1">
<path style=" stroke:none;fill-rule:nonzero;fill:rgb(0%,0%,0%);fill-opacity:1;" d="M 187.179688 71.566406 L 121.796875 14.4375 C 115.800781 9.09375 108.042969 6.140625 100 6.140625 C 91.960938 6.140625 84.199219 9.09375 78.207031 14.4375 L 12.820312 71.566406 C 9.359375 74.652344 6.597656 78.4375 4.71875 82.667969 C 2.839844 86.902344 1.886719 91.484375 1.925781 96.113281 L 1.925781 191.039062 C 1.925781 199.679688 5.367188 207.96875 11.5 214.078125 C 17.628906 220.1875 25.945312 223.621094 34.617188 223.621094 L 165.386719 223.621094 C 174.054688 223.621094 182.371094 220.1875 188.503906 214.078125 C 194.632812 207.96875 198.078125 199.679688 198.078125 191.039062 L 198.078125 96.003906 C 198.097656 91.394531 197.140625 86.832031 195.261719 82.617188 C 193.382812 78.40625 190.628906 74.640625 187.179688 71.566406 Z M 121.796875 201.898438 L 78.207031 201.898438 L 78.207031 147.59375 C 78.207031 144.714844 79.355469 141.949219 81.398438 139.914062 C 83.441406 137.875 86.214844 136.734375 89.105469 136.734375 L 110.898438 136.734375 C 113.789062 136.734375 116.5625 137.875 118.605469 139.914062 C 120.648438 141.949219 121.796875 144.714844 121.796875 147.59375 Z M 176.28125 191.039062 C 176.28125 193.917969 175.132812 196.679688 173.089844 198.71875 C 171.046875 200.753906 168.277344 201.898438 165.386719 201.898438 L 143.589844 201.898438 L 143.589844 147.59375 C 143.589844 138.953125 140.144531 130.664062 134.015625 124.554688 C 127.882812 118.441406 119.570312 115.011719 110.898438 115.011719 L 89.105469 115.011719 C 80.433594 115.011719 72.117188 118.441406 65.988281 124.554688 C 59.855469 130.664062 56.410156 138.953125 56.410156 147.59375 L 56.410156 201.898438 L 34.617188 201.898438 C 31.726562 201.898438 28.953125 200.753906 26.910156 198.71875 C 24.867188 196.679688 23.71875 193.917969 23.71875 191.039062 L 23.71875 96.003906 C 23.722656 94.460938 24.050781 92.9375 24.691406 91.53125 C 25.328125 90.128906 26.261719 88.875 27.425781 87.859375 L 92.808594 30.835938 C 94.796875 29.09375 97.355469 28.136719 100 28.136719 C 102.648438 28.136719 105.203125 29.09375 107.191406 30.835938 L 172.578125 87.859375 C 173.738281 88.875 174.671875 90.128906 175.3125 91.53125 C 175.949219 92.9375 176.28125 94.460938 176.28125 96.003906 Z M 176.28125 191.039062 "/>
</g>
</svg>
