<svg width="24" height="24" viewBox="0 0 24 24" fill="none" xmlns="http://www.w3.org/2000/svg">
<path d="M21.2653 5.73498L18.2653 2.73498C18.2305 2.70012 18.1891 2.67246 18.1436 2.65359C18.0981 2.63471 18.0493 2.625 18 2.625C17.9507 2.625 17.9019 2.63471 17.8564 2.65359C17.8109 2.67246 17.7695 2.70012 17.7347 2.73498L8.73469 11.735C8.69987 11.7698 8.67227 11.8112 8.65345 11.8567C8.63463 11.9022 8.62496 11.951 8.625 12.0003V15.0003C8.625 15.0998 8.66451 15.1951 8.73484 15.2655C8.80516 15.3358 8.90054 15.3753 9 15.3753H12C12.0493 15.3753 12.098 15.3657 12.1436 15.3468C12.1891 15.328 12.2305 15.3004 12.2653 15.2656L21.2653 6.26561C21.3002 6.23078 21.3278 6.18942 21.3467 6.1439C21.3656 6.09837 21.3753 6.04958 21.3753 6.0003C21.3753 5.95101 21.3656 5.90222 21.3467 5.85669C21.3278 5.81117 21.3002 5.76981 21.2653 5.73498ZM11.8444 14.6253H9.375V12.1559L15.75 5.78092L18.2194 8.2503L11.8444 14.6253ZM18.75 7.71967L16.2806 5.2503L18 3.53092L20.4694 6.0003L18.75 7.71967ZM20.625 12.0003V19.5003C20.625 19.7987 20.5065 20.0848 20.2955 20.2958C20.0845 20.5068 19.7984 20.6253 19.5 20.6253H4.5C4.20163 20.6253 3.91548 20.5068 3.7045 20.2958C3.49353 20.0848 3.375 19.7987 3.375 19.5003V4.5003C3.375 4.20193 3.49353 3.91578 3.7045 3.7048C3.91548 3.49382 4.20163 3.3753 4.5 3.3753H12C12.0995 3.3753 12.1948 3.4148 12.2652 3.48513C12.3355 3.55546 12.375 3.65084 12.375 3.7503C12.375 3.84975 12.3355 3.94513 12.2652 4.01546C12.1948 4.08579 12.0995 4.1253 12 4.1253H4.5C4.40054 4.1253 4.30516 4.1648 4.23484 4.23513C4.16451 4.30546 4.125 4.40084 4.125 4.5003V19.5003C4.125 19.5998 4.16451 19.6951 4.23484 19.7655C4.30516 19.8358 4.40054 19.8753 4.5 19.8753H19.5C19.5995 19.8753 19.6948 19.8358 19.7652 19.7655C19.8355 19.6951 19.875 19.5998 19.875 19.5003V12.0003C19.875 11.9008 19.9145 11.8055 19.9848 11.7351C20.0552 11.6648 20.1505 11.6253 20.25 11.6253C20.3495 11.6253 20.4448 11.6648 20.5152 11.7351C20.5855 11.8055 20.625 11.9008 20.625 12.0003Z" fill="black"/>
</svg>
