<svg width="19" height="18" viewBox="0 0 19 18" fill="none" xmlns="http://www.w3.org/2000/svg">
<path d="M18.125 9C18.125 9.09946 18.0855 9.19484 18.0152 9.26517C17.9448 9.33549 17.8495 9.375 17.75 9.375H9.875V17.25C9.875 17.3495 9.83549 17.4448 9.76517 17.5152C9.69484 17.5855 9.59946 17.625 9.5 17.625C9.40054 17.625 9.30516 17.5855 9.23483 17.5152C9.16451 17.4448 9.125 17.3495 9.125 17.25V9.375H1.25C1.15054 9.375 1.05516 9.33549 0.984835 9.26517C0.914509 9.19484 0.875 9.09946 0.875 9C0.875 8.90054 0.914509 8.80516 0.984835 8.73483C1.05516 8.66451 1.15054 8.625 1.25 8.625H9.125V0.75C9.125 0.650544 9.16451 0.555161 9.23483 0.484835C9.30516 0.414509 9.40054 0.375 9.5 0.375C9.59946 0.375 9.69484 0.414509 9.76517 0.484835C9.83549 0.555161 9.875 0.650544 9.875 0.75V8.625H17.75C17.8495 8.625 17.9448 8.66451 18.0152 8.73483C18.0855 8.80516 18.125 8.90054 18.125 9Z" fill="black"/>
</svg>
