<?xml version="1.0" encoding="UTF-8"?>
<svg xmlns="http://www.w3.org/2000/svg" xmlns:xlink="http://www.w3.org/1999/xlink" width="200px" height="231px" viewBox="0 0 200 200" version="1.1">
<g id="surface1">
<path style=" stroke:none;fill-rule:nonzero;fill:rgb(0%,0%,0%);fill-opacity:1;" d="M 99.992188 5.558594 C 81.675781 5.59375 63.765625 10.957031 48.4375 20.988281 C 33.113281 31.023438 21.039062 45.296875 13.679688 62.074219 C 6.324219 78.847656 4.003906 97.402344 7.003906 115.472656 C 10.003906 133.542969 18.195312 150.351562 30.578125 163.847656 C 39.421875 173.433594 50.15625 181.085938 62.101562 186.320312 C 74.050781 191.550781 86.953125 194.253906 99.992188 194.253906 C 113.039062 194.253906 125.9375 191.550781 137.886719 186.320312 C 149.832031 181.085938 160.566406 173.433594 169.410156 163.847656 C 181.792969 150.351562 189.984375 133.542969 192.984375 115.472656 C 195.984375 97.402344 193.664062 78.847656 186.308594 62.074219 C 178.949219 45.296875 166.875 31.023438 151.550781 20.988281 C 136.222656 10.957031 118.3125 5.59375 99.992188 5.558594 Z M 99.992188 175.558594 C 80.429688 175.53125 61.640625 167.914062 47.578125 154.308594 C 51.847656 143.917969 59.109375 135.027344 68.441406 128.769531 C 77.777344 122.515625 88.757812 119.175781 99.992188 119.175781 C 111.230469 119.175781 122.210938 122.515625 131.546875 128.769531 C 140.878906 135.027344 148.140625 143.917969 152.410156 154.308594 C 138.347656 167.914062 119.558594 175.53125 99.992188 175.558594 Z M 81.105469 81.117188 C 81.105469 77.378906 82.214844 73.726562 84.289062 70.621094 C 86.363281 67.515625 89.3125 65.09375 92.765625 63.664062 C 96.21875 62.234375 100.015625 61.859375 103.679688 62.589844 C 107.34375 63.316406 110.710938 65.117188 113.351562 67.757812 C 115.992188 70.402344 117.792969 73.765625 118.519531 77.429688 C 119.25 81.09375 118.875 84.894531 117.445312 88.34375 C 116.015625 91.796875 113.59375 94.746094 110.488281 96.820312 C 107.382812 98.898438 103.730469 100.003906 99.992188 100.003906 C 94.984375 100.003906 90.179688 98.015625 86.636719 94.472656 C 83.09375 90.929688 81.105469 86.125 81.105469 81.117188 Z M 165.253906 137.78125 C 156.816406 123.347656 143.828125 112.121094 128.328125 105.859375 C 133.136719 100.40625 136.269531 93.683594 137.351562 86.492188 C 138.433594 79.304688 137.417969 71.957031 134.425781 65.328125 C 131.433594 58.703125 126.59375 53.082031 120.488281 49.136719 C 114.378906 45.191406 107.265625 43.09375 99.992188 43.09375 C 92.722656 43.09375 85.609375 45.191406 79.5 49.136719 C 73.394531 53.082031 68.554688 58.703125 65.5625 65.328125 C 62.570312 71.957031 61.554688 79.304688 62.636719 86.492188 C 63.71875 93.683594 66.851562 100.40625 71.660156 105.859375 C 56.160156 112.121094 43.171875 123.347656 34.734375 137.78125 C 28.007812 126.328125 24.453125 113.289062 24.4375 100.003906 C 24.4375 79.964844 32.398438 60.746094 46.570312 46.578125 C 60.738281 32.410156 79.957031 24.449219 99.992188 24.449219 C 120.03125 24.449219 139.25 32.410156 153.421875 46.578125 C 167.589844 60.746094 175.550781 79.964844 175.550781 100.003906 C 175.535156 113.289062 171.980469 126.328125 165.253906 137.78125 Z M 165.253906 137.78125 "/>
</g>
</svg>
