<svg width="26" height="29" viewBox="0 0 26 29" fill="none" xmlns="http://www.w3.org/2000/svg">
<path d="M20.3749 19.282C19.6644 19.2824 18.9629 19.4412 18.3215 19.7468C17.68 20.0523 17.1148 20.497 16.6668 21.0484L9.78309 16.6258C10.1116 15.9656 10.2825 15.2382 10.2825 14.5008C10.2825 13.7634 10.1116 13.036 9.78309 12.3758L16.6668 7.95312C17.4384 8.89767 18.5424 9.5109 19.7521 9.66685C20.9618 9.82281 22.1852 9.50966 23.1712 8.79172C24.1572 8.07377 24.8309 7.00554 25.0538 5.80642C25.2768 4.60729 25.0321 3.36831 24.3701 2.34394C23.7081 1.31956 22.679 0.587566 21.4941 0.298284C20.3092 0.00900212 19.0585 0.184397 17.999 0.788446C16.9394 1.39249 16.1513 2.37934 15.7966 3.5463C15.4419 4.71326 15.5475 5.97175 16.0917 7.06328L9.20801 11.4859C8.58522 10.7194 7.74032 10.1645 6.78941 9.8975C5.83849 9.63053 4.82824 9.66461 3.89747 9.99504C2.96671 10.3255 2.16112 10.9361 1.59141 11.7429C1.02169 12.5497 0.71582 13.5131 0.71582 14.5008C0.71582 15.4885 1.02169 16.4519 1.59141 17.2587C2.16112 18.0655 2.96671 18.6761 3.89747 19.0065C4.82824 19.3369 5.83849 19.371 6.78941 19.1041C7.74032 18.8371 8.58522 18.2822 9.20801 17.5156L16.0917 21.9383C15.6296 22.8696 15.4837 23.9261 15.676 24.9478C15.8683 25.9694 16.3884 26.9006 17.1575 27.6001C17.9265 28.2997 18.9026 28.7295 19.9378 28.8245C20.9731 28.9195 22.0111 28.6745 22.8946 28.1266C23.7782 27.5787 24.459 26.7577 24.834 25.7881C25.2091 24.8185 25.2579 23.7531 24.973 22.7533C24.6882 21.7534 24.0852 20.8737 23.2555 20.2473C22.4258 19.6209 21.4145 19.2821 20.3749 19.282ZM20.3749 1.21953C21.1104 1.21953 21.8294 1.43763 22.4409 1.84625C23.0525 2.25487 23.5291 2.83566 23.8106 3.51517C24.092 4.19469 24.1657 4.9424 24.0222 5.66377C23.8787 6.38514 23.5245 7.04776 23.0044 7.56783C22.4844 8.08791 21.8217 8.44209 21.1004 8.58557C20.379 8.72906 19.6313 8.65542 18.9518 8.37396C18.2723 8.09249 17.6915 7.61585 17.2829 7.00431C16.8742 6.39276 16.6561 5.67378 16.6561 4.93828C16.6561 3.952 17.0479 3.00613 17.7453 2.30873C18.4427 1.61133 19.3886 1.21953 20.3749 1.21953ZM5.49988 18.2195C4.76438 18.2195 4.0454 18.0014 3.43386 17.5928C2.82231 17.1842 2.34567 16.6034 2.06421 15.9239C1.78274 15.2444 1.7091 14.4967 1.85259 13.7753C1.99608 13.0539 2.35025 12.3913 2.87033 11.8712C3.39041 11.3511 4.05303 10.997 4.77439 10.8535C5.49576 10.71 6.24347 10.7836 6.92299 11.0651C7.6025 11.3466 8.18329 11.8232 8.59191 12.4348C9.00053 13.0463 9.21863 13.7653 9.21863 14.5008C9.21863 15.4871 8.82684 16.4329 8.12944 17.1303C7.43204 17.8277 6.48616 18.2195 5.49988 18.2195ZM20.3749 27.782C19.6394 27.782 18.9204 27.5639 18.3089 27.1553C17.6973 26.7467 17.2207 26.1659 16.9392 25.4864C16.6577 24.8069 16.5841 24.0592 16.7276 23.3378C16.8711 22.6164 17.2253 21.9538 17.7453 21.4337C18.2654 20.9136 18.928 20.5595 19.6494 20.416C20.3708 20.2725 21.1185 20.3461 21.798 20.6276C22.4775 20.9091 23.0583 21.3857 23.4669 21.9973C23.8755 22.6088 24.0936 23.3278 24.0936 24.0633C24.0936 25.0496 23.7018 25.9954 23.0044 26.6928C22.307 27.3902 21.3612 27.782 20.3749 27.782Z" fill="black"/>
</svg>
