<svg width="20" height="16" viewBox="0 0 20 16" fill="none" xmlns="http://www.w3.org/2000/svg">
<path d="M19.375 15.5C19.375 15.5995 19.3355 15.6948 19.2652 15.7652C19.1948 15.8355 19.0995 15.875 19 15.875H1C0.900544 15.875 0.805161 15.8355 0.734835 15.7652C0.664509 15.6948 0.625 15.5995 0.625 15.5V0.5C0.625 0.400544 0.664509 0.305161 0.734835 0.234835C0.805161 0.164509 0.900544 0.125 1 0.125C1.09946 0.125 1.19484 0.164509 1.26516 0.234835C1.33549 0.305161 1.375 0.400544 1.375 0.5V11.5944L6.73469 6.23469C6.76951 6.19982 6.81087 6.17216 6.8564 6.15329C6.90192 6.13442 6.95072 6.12471 7 6.12471C7.04928 6.12471 7.09808 6.13442 7.1436 6.15329C7.18913 6.17216 7.23049 6.19982 7.26531 6.23469L10 8.96937L15.8444 3.125H13C12.9005 3.125 12.8052 3.08549 12.7348 3.01517C12.6645 2.94484 12.625 2.84946 12.625 2.75C12.625 2.65054 12.6645 2.55516 12.7348 2.48483C12.8052 2.41451 12.9005 2.375 13 2.375H16.75C16.8495 2.375 16.9448 2.41451 17.0152 2.48483C17.0855 2.55516 17.125 2.65054 17.125 2.75V6.5C17.125 6.59946 17.0855 6.69484 17.0152 6.76517C16.9448 6.83549 16.8495 6.875 16.75 6.875C16.6505 6.875 16.5552 6.83549 16.4848 6.76517C16.4145 6.69484 16.375 6.59946 16.375 6.5V3.65563L10.2653 9.76531C10.2305 9.80018 10.1891 9.82784 10.1436 9.84671C10.0981 9.86558 10.0493 9.87529 10 9.87529C9.95072 9.87529 9.90192 9.86558 9.8564 9.84671C9.81087 9.82784 9.76952 9.80018 9.73469 9.76531L7 7.03063L1.375 12.6556V15.125H19C19.0995 15.125 19.1948 15.1645 19.2652 15.2348C19.3355 15.3052 19.375 15.4005 19.375 15.5Z" fill="black"/>
</svg>
