<svg width="26" height="27" viewBox="0 0 26 27" fill="none" xmlns="http://www.w3.org/2000/svg">
<path d="M24.6875 4.40625H18.8438V2.8125C18.8438 2.10802 18.5639 1.43239 18.0658 0.934248C17.5676 0.436104 16.892 0.15625 16.1875 0.15625H9.8125C9.10802 0.15625 8.43239 0.436104 7.93425 0.934248C7.4361 1.43239 7.15625 2.10802 7.15625 2.8125V4.40625H1.3125C1.1716 4.40625 1.03648 4.46222 0.93685 4.56185C0.837221 4.66148 0.78125 4.7966 0.78125 4.9375C0.78125 5.0784 0.837221 5.21352 0.93685 5.31315C1.03648 5.41278 1.1716 5.46875 1.3125 5.46875H2.90625V25.125C2.90625 25.5477 3.07416 25.9531 3.37305 26.252C3.67193 26.5508 4.07731 26.7188 4.5 26.7188H21.5C21.9227 26.7188 22.3281 26.5508 22.627 26.252C22.9258 25.9531 23.0938 25.5477 23.0938 25.125V5.46875H24.6875C24.8284 5.46875 24.9635 5.41278 25.0632 5.31315C25.1628 5.21352 25.2188 5.0784 25.2188 4.9375C25.2188 4.7966 25.1628 4.66148 25.0632 4.56185C24.9635 4.46222 24.8284 4.40625 24.6875 4.40625ZM8.21875 2.8125C8.21875 2.38981 8.38666 1.98443 8.68555 1.68555C8.98443 1.38666 9.38981 1.21875 9.8125 1.21875H16.1875C16.6102 1.21875 17.0156 1.38666 17.3145 1.68555C17.6133 1.98443 17.7812 2.38981 17.7812 2.8125V4.40625H8.21875V2.8125ZM22.0312 25.125C22.0312 25.2659 21.9753 25.401 21.8757 25.5007C21.776 25.6003 21.6409 25.6562 21.5 25.6562H4.5C4.3591 25.6562 4.22398 25.6003 4.12435 25.5007C4.02472 25.401 3.96875 25.2659 3.96875 25.125V5.46875H22.0312V25.125ZM10.3438 11.3125V19.8125C10.3438 19.9534 10.2878 20.0885 10.1882 20.1882C10.0885 20.2878 9.9534 20.3438 9.8125 20.3438C9.6716 20.3438 9.53648 20.2878 9.43685 20.1882C9.33722 20.0885 9.28125 19.9534 9.28125 19.8125V11.3125C9.28125 11.1716 9.33722 11.0365 9.43685 10.9368C9.53648 10.8372 9.6716 10.7812 9.8125 10.7812C9.9534 10.7812 10.0885 10.8372 10.1882 10.9368C10.2878 11.0365 10.3438 11.1716 10.3438 11.3125ZM16.7188 11.3125V19.8125C16.7188 19.9534 16.6628 20.0885 16.5632 20.1882C16.4635 20.2878 16.3284 20.3438 16.1875 20.3438C16.0466 20.3438 15.9115 20.2878 15.8118 20.1882C15.7122 20.0885 15.6562 19.9534 15.6562 19.8125V11.3125C15.6562 11.1716 15.7122 11.0365 15.8118 10.9368C15.9115 10.8372 16.0466 10.7812 16.1875 10.7812C16.3284 10.7812 16.4635 10.8372 16.5632 10.9368C16.6628 11.0365 16.7188 11.1716 16.7188 11.3125Z" fill="black"/>
</svg>
