<svg width="30" height="30" viewBox="0 0 30 30" fill="none" xmlns="http://www.w3.org/2000/svg">
<path d="M15 0.65625C12.1631 0.65625 9.38986 1.4975 7.03105 3.07361C4.67223 4.64972 2.83375 6.88991 1.74811 9.51088C0.662465 12.1319 0.378411 15.0159 0.931868 17.7983C1.48532 20.5807 2.85143 23.1366 4.85744 25.1426C6.86345 27.1486 9.41926 28.5147 12.2017 29.0681C14.9841 29.6216 17.8681 29.3375 20.4891 28.2519C23.1101 27.1663 25.3503 25.3278 26.9264 22.969C28.5025 20.6101 29.3438 17.8369 29.3438 15C29.3395 11.1971 27.827 7.55116 25.1379 4.8621C22.4488 2.17304 18.8029 0.660468 15 0.65625ZM8.5679 24.107C9.30776 23.0953 10.2758 22.2725 11.3934 21.7052C12.511 21.138 13.7467 20.8423 15 20.8423C16.2533 20.8423 17.489 21.138 18.6066 21.7052C19.7242 22.2725 20.6922 23.0953 21.4321 24.107C19.5523 25.4401 17.3046 26.1562 15 26.1562C12.6954 26.1562 10.4478 25.4401 8.5679 24.107ZM11.2813 13.9375C11.2813 13.202 11.4994 12.483 11.908 11.8715C12.3166 11.2599 12.8974 10.7833 13.5769 10.5018C14.2564 10.2204 15.0041 10.1467 15.7255 10.2902C16.4469 10.4337 17.1095 10.7879 17.6296 11.3079C18.1496 11.828 18.5038 12.4906 18.6473 13.212C18.7908 13.9334 18.7171 14.6811 18.4357 15.3606C18.1542 16.0401 17.6776 16.6209 17.066 17.0295C16.4545 17.4381 15.7355 17.6562 15 17.6562C14.0137 17.6562 13.0679 17.2645 12.3705 16.5671C11.6731 15.8697 11.2813 14.9238 11.2813 13.9375ZM23.7656 21.8983C22.7326 20.5845 21.4159 19.5212 19.9141 18.7878C20.8712 17.8185 21.5204 16.5878 21.7798 15.2505C22.0393 13.9133 21.8975 12.5291 21.3722 11.2722C20.847 10.0153 19.9617 8.94183 18.8279 8.1868C17.694 7.43176 16.3622 7.02891 15 7.02891C13.6378 7.02891 12.306 7.43176 11.1721 8.1868C10.0383 8.94183 9.15306 10.0153 8.6278 11.2722C8.10255 12.5291 7.96073 13.9133 8.22018 15.2505C8.47964 16.5878 9.12878 17.8185 10.0859 18.7878C8.58411 19.5212 7.26745 20.5845 6.23438 21.8983C4.93686 20.2535 4.1287 18.2765 3.9024 16.1938C3.67609 14.1111 4.0408 12.0067 4.95477 10.1216C5.86874 8.23652 7.29504 6.64686 9.07038 5.53461C10.8457 4.42235 12.8984 3.83247 14.9934 3.83247C17.0883 3.83247 19.141 4.42235 20.9163 5.53461C22.6917 6.64686 24.118 8.23652 25.032 10.1216C25.9459 12.0067 26.3106 14.1111 26.0843 16.1938C25.858 18.2765 25.0499 20.2535 23.7523 21.8983H23.7656Z" fill="black"/>
</svg>
