<svg width="28" height="28" viewBox="0 0 28 28" fill="none" xmlns="http://www.w3.org/2000/svg">
<path d="M14 0.71875C11.3732 0.71875 8.80543 1.49768 6.62134 2.95704C4.43725 4.41641 2.73496 6.49065 1.72973 8.91749C0.724504 11.3443 0.461492 14.0147 0.973952 16.591C1.48641 19.1674 2.75133 21.5338 4.60874 23.3913C6.46616 25.2487 8.83265 26.5136 11.409 27.0261C13.9853 27.5385 16.6557 27.2755 19.0825 26.2703C21.5094 25.265 23.5836 23.5628 25.043 21.3787C26.5023 19.1946 27.2813 16.6268 27.2813 14C27.2774 10.4788 25.8769 7.10289 23.387 4.61301C20.8971 2.12313 17.5212 0.722617 14 0.71875ZM6.1468 23.3527C6.93506 21.9647 8.07709 20.8104 9.4566 20.0074C10.8361 19.2044 12.4038 18.7813 14 18.7813C15.5962 18.7813 17.1639 19.2044 18.5434 20.0074C19.9229 20.8104 21.065 21.9647 21.8532 23.3527C19.655 25.2037 16.8737 26.2187 14 26.2187C11.1263 26.2187 8.34497 25.2037 6.1468 23.3527ZM22.6554 22.6155C21.3357 20.409 19.2199 18.7927 16.7439 18.0999C17.8951 17.4877 18.8084 16.5081 19.3387 15.317C19.8689 14.1258 19.9856 12.7916 19.6701 11.5265C19.3546 10.2614 18.6251 9.13811 17.5977 8.33541C16.5702 7.53271 15.3038 7.09668 14 7.09668C12.6962 7.09668 11.4298 7.53271 10.4023 8.33541C9.37488 9.13811 8.64538 10.2614 8.3299 11.5265C8.01442 12.7916 8.13108 14.1258 8.66133 15.317C9.19157 16.5081 10.1049 17.4877 11.2561 18.0999C8.78013 18.7927 6.66428 20.409 5.34462 22.6155C3.64016 20.905 2.48078 18.7277 2.01285 16.3587C1.54493 13.9897 1.78945 11.5352 2.71554 9.30504C3.64163 7.0749 5.20776 5.16917 7.21617 3.82849C9.22459 2.48781 11.5852 1.77229 14 1.77229C16.4148 1.77229 18.7754 2.48781 20.7838 3.82849C22.7923 5.16917 24.3584 7.0749 25.2845 9.30504C26.2106 11.5352 26.4551 13.9897 25.9872 16.3587C25.5192 18.7277 24.3598 20.905 22.6554 22.6155ZM14 17.7188C13.0544 17.7188 12.13 17.4383 11.3437 16.913C10.5574 16.3876 9.94459 15.6409 9.58271 14.7672C9.22083 13.8935 9.12614 12.9322 9.31063 12.0047C9.49511 11.0773 9.95048 10.2253 10.6192 9.55665C11.2878 8.88798 12.1398 8.43261 13.0672 8.24812C13.9947 8.06363 14.9561 8.15832 15.8297 8.5202C16.7034 8.88208 17.4501 9.49491 17.9755 10.2812C18.5008 11.0675 18.7813 11.9919 18.7813 12.9375C18.7813 14.2056 18.2775 15.4217 17.3809 16.3184C16.4842 17.215 15.2681 17.7188 14 17.7188Z" fill="black"/>
</svg>
