<svg width="24" height="24" viewBox="0 0 24 24" fill="none" xmlns="http://www.w3.org/2000/svg">
<path d="M13.7531 15.6328C14.3824 15.2503 14.8693 14.6724 15.1395 13.9874C15.4098 13.3023 15.4485 12.5477 15.2499 11.8386C15.0513 11.1294 14.6262 10.5047 14.0394 10.0597C13.4526 9.61473 12.7364 9.37386 12 9.37386C11.2636 9.37386 10.5474 9.61473 9.96059 10.0597C9.37382 10.5047 8.94871 11.1294 8.75008 11.8386C8.55145 12.5477 8.59022 13.3023 8.86046 13.9874C9.13071 14.6724 9.6176 15.2503 10.2469 15.6328C9.02856 16.0032 7.96082 16.7539 7.2 17.775C7.14033 17.8546 7.1147 17.9546 7.12877 18.053C7.14283 18.1515 7.19543 18.2403 7.275 18.3C7.35456 18.3597 7.45458 18.3853 7.55303 18.3712C7.65149 18.3572 7.74033 18.3046 7.8 18.225C8.28902 17.573 8.92314 17.0438 9.65213 16.6793C10.3811 16.3148 11.185 16.125 12 16.125C12.815 16.125 13.6189 16.3148 14.3479 16.6793C15.0769 17.0438 15.711 17.573 16.2 18.225C16.2295 18.2644 16.2666 18.2976 16.3089 18.3227C16.3513 18.3478 16.3982 18.3643 16.447 18.3712C16.4957 18.3782 16.5454 18.3755 16.5931 18.3633C16.6408 18.351 16.6856 18.3295 16.725 18.3C16.7644 18.2705 16.7976 18.2334 16.8227 18.1911C16.8478 18.1487 16.8643 18.1018 16.8712 18.053C16.8782 18.0043 16.8755 17.9546 16.8633 17.9069C16.851 17.8592 16.8295 17.8144 16.8 17.775C16.0389 16.7541 14.9713 16.0035 13.7531 15.6328ZM9.375 12.75C9.375 12.2308 9.52895 11.7233 9.81739 11.2916C10.1058 10.8599 10.5158 10.5235 10.9955 10.3248C11.4751 10.1261 12.0029 10.0742 12.5121 10.1754C13.0213 10.2767 13.489 10.5267 13.8562 10.8938C14.2233 11.261 14.4733 11.7287 14.5746 12.2379C14.6758 12.7471 14.6239 13.2749 14.4252 13.7545C14.2265 14.2342 13.8901 14.6442 13.4584 14.9326C13.0267 15.221 12.5192 15.375 12 15.375C11.3038 15.375 10.6361 15.0984 10.1438 14.6062C9.65156 14.1139 9.375 13.4462 9.375 12.75ZM18.75 2.625H5.25C4.95163 2.625 4.66548 2.74353 4.4545 2.9545C4.24353 3.16548 4.125 3.45163 4.125 3.75V20.25C4.125 20.5484 4.24353 20.8345 4.4545 21.0455C4.66548 21.2565 4.95163 21.375 5.25 21.375H18.75C19.0484 21.375 19.3345 21.2565 19.5455 21.0455C19.7565 20.8345 19.875 20.5484 19.875 20.25V3.75C19.875 3.45163 19.7565 3.16548 19.5455 2.9545C19.3345 2.74353 19.0484 2.625 18.75 2.625ZM19.125 20.25C19.125 20.3495 19.0855 20.4448 19.0152 20.5152C18.9448 20.5855 18.8495 20.625 18.75 20.625H5.25C5.15054 20.625 5.05516 20.5855 4.98484 20.5152C4.91451 20.4448 4.875 20.3495 4.875 20.25V3.75C4.875 3.65054 4.91451 3.55516 4.98484 3.48484C5.05516 3.41451 5.15054 3.375 5.25 3.375H18.75C18.8495 3.375 18.9448 3.41451 19.0152 3.48484C19.0855 3.55516 19.125 3.65054 19.125 3.75V20.25ZM8.625 6C8.625 5.90054 8.66451 5.80516 8.73483 5.73484C8.80516 5.66451 8.90054 5.625 9 5.625H15C15.0995 5.625 15.1948 5.66451 15.2652 5.73484C15.3355 5.80516 15.375 5.90054 15.375 6C15.375 6.09946 15.3355 6.19484 15.2652 6.26517C15.1948 6.33549 15.0995 6.375 15 6.375H9C8.90054 6.375 8.80516 6.33549 8.73483 6.26517C8.66451 6.19484 8.625 6.09946 8.625 6Z" fill="black"/>
</svg>
