<svg width="101" height="60" viewBox="0 0 101 60" fill="none" xmlns="http://www.w3.org/2000/svg">
<path d="M51.5636 13.4885L50.9431 13.0264C50.6801 12.8306 50.3199 12.8306 50.0569 13.0264L49.4364 13.4885C48.9283 13.8668 48.7655 14.5556 49.0505 15.1214C49.1498 15.3188 49.1704 15.5465 49.1079 15.7584L47.2988 21.8958C47.2752 21.9757 47.2309 22.048 47.1703 22.1053L29.2714 3.64638C27.0112 1.31555 23.9031 0 20.6564 0H5.4628C3.03856 0 0.950565 1.70936 0.471879 4.08586C0.17294 5.56999 0.550011 7.11016 1.50074 8.28834L15.8524 26.0734C18.8964 29.8456 23.911 31.4161 28.5629 30.0541L30.8919 29.3722C32.6027 28.8713 34.4163 28.8368 36.1449 29.2723L42.1311 30.7804C42.7749 30.9426 42.8067 31.8456 42.1758 32.0526L37.3092 32.9151C34.8611 33.3489 32.6497 34.6957 31.1292 36.6628C29.2654 39.0742 28.5871 42.2246 29.3141 45.1843L30.5548 50.2353C31.102 52.4629 32.3984 54.4346 34.2266 55.82L38.2604 58.8766C40.6966 60.7227 44.2192 59.2649 44.6384 56.2372L47.2628 37.2857V42L47.7827 51.8936C47.8661 53.4802 48.3936 55.0114 49.3053 56.3126C49.8781 57.1301 51.0951 57.1119 51.6431 56.2775L51.6748 56.2292C52.4963 54.9785 52.9818 53.5372 53.0845 52.0443L53.7372 42.5526V37.2857L56.3616 56.2372C56.7808 59.2649 60.3034 60.7227 62.7396 58.8767L66.7734 55.82C68.6016 54.4346 69.898 52.4629 70.4452 50.2353L71.6859 45.1843C72.4129 42.2246 71.7346 39.0742 69.8708 36.6628C68.3503 34.6957 66.1389 33.3489 63.6908 32.9151L58.8242 32.0526C58.2191 31.8381 58.2584 30.9695 58.8804 30.8104L64.8389 29.2865C66.5777 28.8418 68.4041 28.8733 70.1266 29.3776L72.4371 30.0541C77.089 31.4161 82.1036 29.8456 85.1476 26.0734L99.4378 8.3645C100.424 7.14177 100.797 5.53479 100.45 4.00246C99.9198 1.66168 97.8395 0 95.4393 0H80.3436C77.0969 0 73.9888 1.31556 71.7287 3.64638L53.8297 22.1053C53.7691 22.048 53.7248 21.9757 53.7012 21.8958L51.8921 15.7584C51.8296 15.5465 51.8502 15.3188 51.9495 15.1214C52.2345 14.5556 52.0717 13.8669 51.5636 13.4885Z" fill="#393054"/>
</svg>
