<svg width="277" height="277" viewBox="0 0 277 277" fill="none" xmlns="http://www.w3.org/2000/svg">
<path d="M140.438 105.042L139.103 104.034C138.746 103.765 138.254 103.765 137.897 104.034L136.562 105.042C135.623 105.751 135.322 107.029 135.845 108.083C136.027 108.45 136.065 108.871 135.951 109.264L134.016 115.918C133.373 118.132 130.576 118.822 128.976 117.163L96.6787 83.6702C94.417 81.3249 91.2989 80 88.0407 80H54.9388C51.1215 80 47.836 82.697 47.0922 86.4412L46.7228 88.3005C46.2644 90.608 46.8449 93.0004 48.31 94.8412L79.203 133.657C82.2501 137.486 87.3165 139.081 92.0072 137.688L104.724 133.913C106.456 133.399 108.294 133.364 110.045 133.811L123.072 137.138C124.098 137.4 124.066 138.868 123.03 139.086L111.01 141.614C108.662 142.108 106.57 143.43 105.115 145.338L100.474 151.426C98.6474 153.823 97.9986 156.915 98.7081 159.843L102.686 176.262C103.223 178.48 104.503 180.447 106.312 181.837L120.581 192.8C123.017 194.671 126.565 193.212 126.981 190.169L131.012 160.657C131.177 159.446 132.956 159.533 133.002 160.755L133.625 177.388C133.711 179.67 134.446 181.881 135.745 183.76L136.801 185.289C137.611 186.46 139.351 186.434 140.125 185.239L141.183 183.605C142.339 181.822 143 179.764 143.099 177.642L143.918 160.158C143.975 158.942 145.743 158.864 145.908 160.069L150.019 190.169C150.435 193.212 153.983 194.671 156.419 192.8L170.688 181.837C172.497 180.447 173.777 178.48 174.314 176.262L178.292 159.843C179.001 156.915 178.353 153.823 176.526 151.426L171.874 145.324C170.426 143.424 168.346 142.106 166.01 141.607L159.846 140.291L154.201 139.085C153.169 138.865 153.138 137.404 154.159 137.139L166.939 133.825C168.699 133.369 170.551 133.401 172.295 133.919L184.993 137.688C189.683 139.081 194.75 137.486 197.797 133.657L228.618 94.9321C230.124 93.0392 230.693 90.5663 230.166 88.2053L229.73 86.2551C228.913 82.5993 225.668 80 221.922 80H188.959C185.701 80 182.583 81.3249 180.321 83.6702L148.024 117.163C146.424 118.822 143.627 118.132 142.984 115.918L141.049 109.264C140.935 108.871 140.973 108.45 141.155 108.083C141.678 107.029 141.377 105.751 140.438 105.042Z" fill="#393054" stroke="url(#paint0_linear_1906_5737)"/>
<defs>
<linearGradient id="paint0_linear_1906_5737" x1="138.5" y1="76.4184" x2="138.5" y2="197" gradientUnits="userSpaceOnUse">
<stop stop-color="white"/>
<stop offset="1" stop-color="#999999" stop-opacity="0.37"/>
</linearGradient>
</defs>
</svg>
