<?xml version="1.0" standalone="no"?>
<!DOCTYPE svg PUBLIC "-//W3C//DTD SVG 20010904//EN"
 "http://www.w3.org/TR/2001/REC-SVG-20010904/DTD/svg10.dtd">
<svg version="1.0" xmlns="http://www.w3.org/2000/svg"
 width="390.000000pt" height="248.000000pt" viewBox="0 0 390.000000 248.000000"
 preserveAspectRatio="xMidYMid meet">

<g transform="translate(0.000000,248.000000) scale(0.100000,-0.100000)"
fill="#FFF" stroke="none">
<path d="M3295 2416 c-109 -29 -192 -62 -274 -110 -34 -20 -65 -36 -69 -36
-17 0 -178 -114 -282 -200 -153 -126 -213 -183 -274 -257 -28 -34 -83 -99
-122 -145 -40 -46 -101 -126 -136 -179 -62 -93 -65 -96 -79 -75 -24 37 -29 57
-18 77 14 27 2 58 -27 69 -13 5 -24 14 -24 20 0 12 -42 4 -84 -17 -25 -13 -28
-19 -23 -50 3 -19 1 -46 -4 -61 -6 -15 -10 -29 -9 -31 2 -6 -23 -21 -36 -21
-6 0 -32 42 -59 93 -86 164 -281 376 -482 523 -67 49 -141 101 -165 115 -164
99 -231 136 -295 165 -199 91 -414 127 -582 98 -117 -20 -157 -32 -176 -50
-17 -18 -20 -91 -5 -138 42 -134 64 -191 99 -255 23 -41 41 -75 41 -78 0 -10
286 -575 313 -618 61 -97 120 -162 175 -196 47 -28 64 -33 111 -32 45 1 252
56 376 99 12 4 4 -7 -18 -26 -77 -66 -150 -196 -186 -332 -30 -113 -28 -165 8
-202 70 -74 138 -154 160 -189 36 -58 141 -134 246 -177 27 -12 91 -46 142
-76 65 -39 100 -54 120 -52 39 4 40 5 109 373 38 203 53 251 51 170 0 -28 0
-98 1 -156 l2 -106 41 -52 c22 -28 46 -51 53 -51 7 0 24 12 38 28 56 60 58 69
62 235 2 85 7 160 11 167 8 13 88 -204 134 -365 11 -38 28 -99 38 -135 l18
-65 43 -3 c34 -3 62 7 147 47 57 28 109 51 115 51 19 0 94 52 148 104 50 47
172 213 172 234 0 5 14 28 30 50 71 98 9 274 -165 470 -22 25 -74 68 -115 95
l-75 49 80 -7 c99 -8 182 -26 305 -68 71 -24 113 -32 166 -32 65 0 76 3 123
35 63 42 165 164 202 240 15 31 34 61 42 69 9 7 28 44 43 82 15 38 31 69 36
69 4 0 8 5 8 11 0 10 61 138 88 184 6 11 23 48 37 82 14 34 49 111 79 170 64
128 96 227 96 295 0 47 -2 50 -35 64 -36 15 -229 34 -340 33 -33 0 -100 -10
-150 -23z"/>
</g>
</svg>
