<svg width="768" height="477" viewBox="0 0 768 477" fill="none" xmlns="http://www.w3.org/2000/svg">
<line x1="384.257" y1="444.442" x2="403.639" y2="415.791" stroke="#E499FF" stroke-width="4"/>
<line x1="403.291" y1="416.821" x2="409.19" y2="287.049" stroke="#E499FF" stroke-width="4"/>
<line x1="410.117" y1="288.828" x2="384.837" y2="272.817" stroke="#E499FF" stroke-width="4"/>
<line x1="383.906" y1="445.998" x2="384.336" y2="100.998" stroke="#E499FF" stroke-width="4"/>
<line x1="408.551" y1="288.107" x2="502.551" y2="320.107" stroke="#E499FF" stroke-width="4"/>
<line x1="384.871" y1="269.422" x2="430.376" y2="241.614" stroke="#E499FF" stroke-width="4"/>
<line x1="428.351" y1="243.05" x2="591.123" y2="280.133" stroke="#E499FF" stroke-width="4"/>
<line x1="591.517" y1="280.185" x2="449.517" y2="473.185" stroke="#E499FF" stroke-width="4"/>
<line x1="446.946" y1="473.398" x2="409.228" y2="287.537" stroke="#E499FF" stroke-width="4"/>
<line x1="592.875" y1="278.352" x2="563.875" y2="440.352" stroke="#E499FF" stroke-width="4"/>
<line x1="565.481" y1="438.916" x2="445.481" y2="474.916" stroke="#E499FF" stroke-width="4"/>
<line x1="533.021" y1="165.207" x2="765.916" y2="50.2383" stroke="#E499FF" stroke-width="4"/>
<line x1="765.336" y1="52" x2="765.336" y2="5" stroke="#E499FF" stroke-width="4"/>
<line x1="765.469" y1="50.2484" x2="606.469" y2="249.248" stroke="#E499FF" stroke-width="4"/>
<line x1="607.412" y1="247.33" x2="534.412" y2="165.33" stroke="#E499FF" stroke-width="4"/>
<line x1="430.373" y1="243.072" x2="512.621" y2="220.326" stroke="#E499FF" stroke-width="4"/>
<line x1="429.464" y1="243.766" x2="406.712" y2="144.331" stroke="#E499FF" stroke-width="4"/>
<line x1="408.221" y1="142.354" x2="574.619" y2="2.4691" stroke="#E499FF" stroke-width="4"/>
<line x1="573.336" y1="3" x2="767.336" y2="3" stroke="#E499FF" stroke-width="4"/>
<line x1="500.207" y1="190.104" x2="508.634" y2="56.9613" stroke="#E499FF" stroke-width="4"/>
<line x1="406.311" y1="143.909" x2="385.318" y2="137.367" stroke="#E499FF" stroke-width="4"/>
<line x1="407.825" y1="144.966" x2="392.657" y2="121.371" stroke="#E499FF" stroke-width="4"/>
<line x1="384.204" y1="133.577" x2="398.53" y2="109.982" stroke="#E499FF" stroke-width="4"/>
<line x1="397.906" y1="112" x2="384.906" y2="112" stroke="#E499FF" stroke-width="4"/>
<line x1="398.932" y1="112.537" x2="382.603" y2="98.5174" stroke="#E499FF" stroke-width="4"/>
<line y1="-2" x2="20.1112" y2="-2" transform="matrix(0.762169 -0.647378 -0.647378 -0.762169 367.906 111.02)" stroke="#E499FF" stroke-width="4"/>
<line x1="501.791" y1="320.67" x2="447.791" y2="472.67" stroke="#E499FF" stroke-width="4"/>
<line x1="502.078" y1="320.179" x2="589.856" y2="280.263" stroke="#E499FF" stroke-width="4"/>
<line x1="513.722" y1="220.335" x2="608.101" y2="248.144" stroke="#E499FF" stroke-width="4"/>
<line x1="430.224" y1="241.713" x2="534.717" y2="164.392" stroke="#E499FF" stroke-width="4"/>
<line x1="572.512" y1="2.80831" x2="650.039" y2="107.3" stroke="#E499FF" stroke-width="4"/>
<line x1="764.241" y1="4.4898" x2="649.241" y2="107.49" stroke="#E499FF" stroke-width="4"/>
<line x1="511.315" y1="221.472" x2="536.065" y2="163.218" stroke="#E499FF" stroke-width="4"/>
<line x1="384.86" y1="206.431" x2="406.77" y2="143.23" stroke="#E499FF" stroke-width="4"/>
<line x1="430.146" y1="244.867" x2="384.638" y2="207.546" stroke="#E499FF" stroke-width="4"/>
<line x1="403.386" y1="417.528" x2="384.005" y2="357.698" stroke="#E499FF" stroke-width="4"/>
<line x1="501.452" y1="320.373" x2="429.964" y2="244.694" stroke="#E499FF" stroke-width="4"/>
<line y1="-2" x2="34.5908" y2="-2" transform="matrix(-0.560309 -0.828283 -0.828283 0.560309 382.328 445.562)" stroke="#E499FF" stroke-width="4"/>
<line y1="-2" x2="129.906" y2="-2" transform="matrix(-0.0454077 -0.998969 -0.998969 0.0454077 362.953 416.912)" stroke="#E499FF" stroke-width="4"/>
<line y1="-2" x2="29.9239" y2="-2" transform="matrix(0.844819 -0.535052 -0.535052 -0.844819 357.055 287.139)" stroke="#E499FF" stroke-width="4"/>
<line y1="-2" x2="99.2975" y2="-2" transform="matrix(-0.94665 0.322264 0.322264 0.94665 360.336 290)" stroke="#E499FF" stroke-width="4"/>
<line y1="-2" x2="53.3288" y2="-2" transform="matrix(-0.853282 -0.52145 -0.52145 0.853282 382.328 271.129)" stroke="#E499FF" stroke-width="4"/>
<line y1="-2" x2="166.943" y2="-2" transform="matrix(-0.975017 0.222132 0.222132 0.975017 340.336 245)" stroke="#E499FF" stroke-width="4"/>
<line y1="-2" x2="239.61" y2="-2" transform="matrix(0.592629 0.805475 0.805475 -0.592629 178.336 279)" stroke="#E499FF" stroke-width="4"/>
<line y1="-2" x2="189.649" y2="-2" transform="matrix(0.198885 -0.980023 -0.980023 -0.198885 319.336 473)" stroke="#E499FF" stroke-width="4"/>
<line y1="-2" x2="164.575" y2="-2" transform="matrix(0.176211 0.984352 0.984352 -0.176211 177.336 278)" stroke="#E499FF" stroke-width="4"/>
<line y1="-2" x2="125.284" y2="-2" transform="matrix(0.957826 0.287348 0.287348 -0.957826 203.336 437)" stroke="#E499FF" stroke-width="4"/>
<line y1="-2" x2="259.727" y2="-2" transform="matrix(-0.896694 -0.442651 -0.442651 0.896694 234.336 167)" stroke="#E499FF" stroke-width="4"/>
<line y1="-2" x2="47" y2="-2" transform="matrix(-5.44138e-10 -1 -1 5.44138e-10 0.90625 52)" stroke="#E499FF" stroke-width="4"/>
<line y1="-2" x2="254.719" y2="-2" transform="matrix(0.624216 0.781252 0.781252 -0.624216 4.33594 49)" stroke="#E499FF" stroke-width="4"/>
<line y1="-2" x2="109.786" y2="-2" transform="matrix(0.664929 -0.746907 -0.746907 -0.664929 159.336 246)" stroke="#E499FF" stroke-width="4"/>
<line y1="-2" x2="85.3349" y2="-2" transform="matrix(-0.963819 -0.266557 -0.266557 0.963819 337.336 245)" stroke="#E499FF" stroke-width="4"/>
<line y1="-2" x2="102.006" y2="-2" transform="matrix(0.223049 -0.974807 -0.974807 -0.223049 336.828 243.32)" stroke="#E499FF" stroke-width="4"/>
<line y1="-2" x2="217.385" y2="-2" transform="matrix(-0.765455 -0.643489 -0.643489 0.765455 358.734 143.885)" stroke="#E499FF" stroke-width="4"/>
<line y1="-2" x2="194" y2="-2" transform="matrix(-1 0 0 1 194.906 5)" stroke="#E499FF" stroke-width="4"/>
<line y1="-2" x2="133.409" y2="-2" transform="matrix(-0.0631648 -0.998003 -0.998003 0.0631648 266.039 190.23)" stroke="#E499FF" stroke-width="4"/>
<line y1="-2" x2="21.9891" y2="-2" transform="matrix(0.954718 -0.297511 -0.297511 -0.954718 361.336 142)" stroke="#E499FF" stroke-width="4"/>
<line y1="-2" x2="28.0499" y2="-2" transform="matrix(0.540758 -0.841178 -0.841178 -0.540758 358.734 143.885)" stroke="#E499FF" stroke-width="4"/>
<line y1="-2" x2="27.6033" y2="-2" transform="matrix(-0.518978 -0.854788 -0.854788 0.518978 382.328 134.615)" stroke="#E499FF" stroke-width="4"/>
<line y1="-2" x2="13" y2="-2" transform="matrix(1 0 0 -1 370.336 110)" stroke="#E499FF" stroke-width="4"/>
<line y1="-2" x2="161.307" y2="-2" transform="matrix(0.334765 0.942302 0.942302 -0.334765 268.336 320)" stroke="#E499FF" stroke-width="4"/>
<line y1="-2" x2="96.4275" y2="-2" transform="matrix(-0.910299 -0.413952 -0.413952 0.910299 265.336 322)" stroke="#E499FF" stroke-width="4"/>
<line y1="-2" x2="98.3913" y2="-2" transform="matrix(-0.959229 0.28263 0.28263 0.959229 255.086 222.254)" stroke="#E499FF" stroke-width="4"/>
<line y1="-2" x2="129.989" y2="-2" transform="matrix(-0.803856 -0.594824 -0.594824 0.803856 336.828 243.32)" stroke="#E499FF" stroke-width="4"/>
<line y1="-2" x2="130.111" y2="-2" transform="matrix(-0.595847 0.803098 0.803098 0.595847 197.336 4)" stroke="#E499FF" stroke-width="4"/>
<line y1="-2" x2="154.383" y2="-2" transform="matrix(0.744902 0.667173 0.667173 -0.744902 5.33594 3)" stroke="#E499FF" stroke-width="4"/>
<line y1="-2" x2="63.2936" y2="-2" transform="matrix(-0.391035 -0.920376 -0.920376 0.391035 255.086 222.254)" stroke="#E499FF" stroke-width="4"/>
<line y1="-2" x2="66.8907" y2="-2" transform="matrix(-0.327543 -0.944836 -0.944836 0.327543 381.492 207.086)" stroke="#E499FF" stroke-width="4"/>
<line y1="-2" x2="58.8538" y2="-2" transform="matrix(0.773235 -0.634119 -0.634119 -0.773235 336.828 243.32)" stroke="#E499FF" stroke-width="4"/>
<line y1="-2" x2="62.891" y2="-2" transform="matrix(0.308177 -0.951329 -0.951329 -0.308177 362.953 416.912)" stroke="#E499FF" stroke-width="4"/>
<line y1="-2" x2="104.105" y2="-2" transform="matrix(0.686689 -0.726951 -0.726951 -0.686689 265.336 319)" stroke="#E499FF" stroke-width="4"/>
</svg>
